<svg width="161" height="160" viewBox="0 0 161 160" fill="none" xmlns="http://www.w3.org/2000/svg">
<g opacity="0.4" filter="url(#filter0_f_441_3156)">
<path d="M74.5 142C93.83 142 109.5 140.209 109.5 138C109.5 135.791 93.83 134 74.5 134C55.17 134 39.5 135.791 39.5 138C39.5 140.209 55.17 142 74.5 142Z" fill="url(#paint0_linear_441_3156)"/>
</g>
<path opacity="0.4" fill-rule="evenodd" clip-rule="evenodd" d="M58.5 128V69.5H41.5V50H21.5V80H7.5V128H58.5Z" fill="url(#paint1_linear_441_3156)"/>
<path opacity="0.4" fill-rule="evenodd" clip-rule="evenodd" d="M36 15C39.8276 15 43.0644 17.53 44.1291 21.0089L44.2508 21.0038L44.5 21C48.9183 21 52.5 24.5817 52.5 29C52.5 33.4183 48.9183 37 44.5 37C44.1614 37 43.8276 36.979 43.5 36.9381L43.5 37H29.5L29.5008 36.8259C29.0191 36.9397 28.5166 37 28 37C24.4101 37 21.5 34.0899 21.5 30.5C21.5 27.073 24.152 24.2655 27.5157 24.0178C27.5052 23.847 27.5 23.6741 27.5 23.5C27.5 18.8056 31.3056 15 36 15Z" fill="url(#paint2_linear_441_3156)"/>
<path opacity="0.4" fill-rule="evenodd" clip-rule="evenodd" d="M131.5 26H149.5V41.3659H157.5V116H131.5V26Z" fill="url(#paint3_linear_441_3156)"/>
<g opacity="0.8">
<path d="M144.96 107.509L149.143 122.735C149.29 123.268 148.976 123.818 148.444 123.964C148.358 123.988 148.268 124 148.179 124H139.812C139.26 124 138.812 123.552 138.812 123C138.812 122.91 138.824 122.821 138.848 122.735L143.031 107.509C143.177 106.977 143.728 106.664 144.26 106.81C144.6 106.903 144.866 107.169 144.96 107.509Z" fill="url(#paint4_linear_441_3156)"/>
<path d="M145.494 124H142.497V134H145.494V124Z" fill="url(#paint5_linear_441_3156)"/>
</g>
<path d="M21.9597 118.509L26.1432 133.735C26.2895 134.268 25.9764 134.818 25.4439 134.964C25.3576 134.988 25.2685 135 25.1789 135H16.8119C16.2596 135 15.8119 134.552 15.8119 134C15.8119 133.91 15.8239 133.821 15.8476 133.735L20.0312 118.509C20.1775 117.977 20.7278 117.664 21.2604 117.81C21.6005 117.903 21.8662 118.169 21.9597 118.509Z" fill="url(#paint6_linear_441_3156)"/>
<path d="M22.4942 135H19.4967V145H22.4942V135Z" fill="url(#paint7_linear_441_3156)"/>
<path opacity="0.4" fill-rule="evenodd" clip-rule="evenodd" d="M114.516 21C116.368 21 117.934 22.2076 118.45 23.868L118.629 23.8636C120.767 23.8636 122.5 25.5731 122.5 27.6818C122.5 29.7905 120.767 31.5 118.629 31.5C118.465 31.5 118.304 31.49 118.145 31.4704L118.145 31.5H111.371L111.371 31.4171C111.138 31.4713 110.895 31.5 110.645 31.5C108.908 31.5 107.5 30.1111 107.5 28.3977C107.5 26.7619 108.784 25.4218 110.411 25.3039C110.406 25.2226 110.403 25.14 110.403 25.0568C110.403 22.8163 112.245 21 114.516 21Z" fill="url(#paint8_linear_441_3156)"/>
<path fill-rule="evenodd" clip-rule="evenodd" d="M103.507 58.4992C103.72 58.7882 103.659 59.1951 103.37 59.4081C102.96 59.7099 102.554 60.0066 102.153 60.2979C101.862 60.5087 101.456 60.4441 101.245 60.1536C101.034 59.863 101.099 59.4566 101.389 59.2457C101.788 58.9563 102.191 58.6615 102.599 58.3614C102.888 58.1485 103.295 58.2102 103.507 58.4992ZM99.8575 61.1442C100.064 61.4381 99.9925 61.8434 99.6985 62.0496C98.8485 62.6457 98.0189 63.216 97.2097 63.7604C96.9119 63.9608 96.508 63.8818 96.3076 63.584C96.1072 63.2861 96.1862 62.8822 96.484 62.6818C97.2858 62.1424 98.1085 61.5769 98.9521 60.9852C99.246 60.7791 99.6514 60.8503 99.8575 61.1442ZM94.8808 64.5211C95.074 64.8236 94.9855 65.2256 94.683 65.4188C93.8002 65.9829 92.9443 66.5127 92.1155 67.008C91.8073 67.1922 91.4082 67.0917 91.2241 66.7836C91.0399 66.4754 91.1404 66.0763 91.4485 65.8922C92.2654 65.404 93.1102 64.8811 93.9831 64.3234C94.2856 64.1301 94.6875 64.2186 94.8808 64.5211ZM89.742 67.6337C89.9139 67.9488 89.7978 68.3437 89.4826 68.5156C88.5414 69.0291 87.6398 69.4914 86.778 69.9023C86.4539 70.0568 86.066 69.9194 85.9115 69.5954C85.757 69.2713 85.8944 68.8834 86.2185 68.7289C87.0565 68.3293 87.937 67.8779 88.8601 67.3744C89.1752 67.2024 89.57 67.3185 89.742 67.6337ZM77.5755 63.7392C78.1516 63.7991 78.7531 63.9401 79.371 64.1725C79.8732 64.3615 80.3482 64.5833 80.7934 64.8354C81.1057 65.0123 81.2156 65.4089 81.0387 65.7213C80.8618 66.0337 80.4652 66.1435 80.1528 65.9666C79.7681 65.7488 79.3544 65.5552 78.9132 65.3893C78.3936 65.1938 77.9006 65.08 77.4412 65.0322C77.0841 64.9951 76.8247 64.6756 76.8618 64.3185C76.8989 63.9615 77.2185 63.7021 77.5755 63.7392ZM82.3081 66.7629C82.5847 66.5341 82.9944 66.5728 83.2233 66.8494C83.9118 67.6816 84.4163 68.6325 84.7098 69.6637C84.7959 69.9662 84.6528 70.2797 84.3838 70.4188C84.4231 70.7114 84.258 71.0033 83.9701 71.1126C82.9145 71.5134 81.9286 71.8189 81.0138 72.0261C80.6637 72.1053 80.3156 71.8858 80.2363 71.5357C80.157 71.1855 80.3765 70.8374 80.7267 70.7582C81.5494 70.5718 82.4509 70.2955 83.4321 69.9262C83.1855 69.1076 82.7769 68.3492 82.2216 67.6781C81.9928 67.4015 82.0315 66.9918 82.3081 66.7629ZM74.8339 64.7748C75.0446 65.0655 74.9798 65.4719 74.6891 65.6826C73.8788 66.27 73.4906 67.1352 73.6069 67.9746C73.6561 68.3302 73.4078 68.6584 73.0522 68.7076C72.6966 68.7569 72.3684 68.5085 72.3192 68.153C72.1279 66.7717 72.7842 65.4579 73.9261 64.6301C74.2168 64.4194 74.6232 64.4842 74.8339 64.7748ZM84.3782 72.1058C84.7346 72.1488 84.9887 72.4726 84.9457 72.829C84.8267 73.8157 84.5333 74.8248 84.0564 75.832C83.9027 76.1564 83.5152 76.2949 83.1907 76.1412C82.8663 75.9876 82.7278 75.6 82.8815 75.2756C83.3027 74.386 83.5539 73.5116 83.6551 72.6733C83.6981 72.3169 84.0218 72.0628 84.3782 72.1058ZM74.347 70.3413C74.536 70.0361 74.9367 69.9419 75.2419 70.131C75.6265 70.3692 76.0889 70.5907 76.6382 70.7834C77.0175 70.9164 77.4482 71.0023 77.9349 71.0351C78.2931 71.0593 78.5638 71.3692 78.5397 71.7274C78.5155 72.0856 78.2056 72.3563 77.8474 72.3322C77.2607 72.2926 76.7126 72.1872 76.2078 72.0101C75.5806 71.79 75.0314 71.5297 74.5574 71.2362C74.2522 71.0472 74.158 70.6465 74.347 70.3413ZM82.3 77.52C82.5784 77.7466 82.6205 78.156 82.394 78.4344C82.0822 78.8176 81.7415 79.1975 81.3712 79.573C81.0586 79.89 80.7187 80.1996 80.3521 80.502C80.0752 80.7305 79.6655 80.6912 79.4371 80.4143C79.2086 80.1374 79.2479 79.7277 79.5248 79.4993C79.8598 79.2229 80.1665 78.9431 80.4456 78.6601C80.788 78.313 81.1009 77.9638 81.3856 77.614C81.6121 77.3355 82.0215 77.2934 82.3 77.52ZM78.3412 81.1728C78.5263 81.4804 78.427 81.8798 78.1195 82.0649C77.393 82.5021 76.6001 82.924 75.7417 83.3307C75.4174 83.4845 75.0297 83.3461 74.876 83.0217C74.7223 82.6973 74.8606 82.3097 75.185 82.156C76.0094 81.7653 76.7638 81.3635 77.4491 80.9511C77.7566 80.766 78.1561 80.8652 78.3412 81.1728ZM73.6547 83.5434C73.7851 83.8778 73.6198 84.2547 73.2854 84.3852C72.4929 84.6943 71.6567 84.9942 70.7768 85.2849C70.4359 85.3975 70.0683 85.2125 69.9557 84.8716C69.8431 84.5308 70.0281 84.1632 70.369 84.0505C71.2291 83.7664 72.0437 83.4742 72.8129 83.1741C73.1473 83.0436 73.5242 83.2089 73.6547 83.5434ZM68.684 85.2607C68.7825 85.6059 68.5825 85.9656 68.2373 86.0641C67.4159 86.2985 66.5622 86.5263 65.6765 86.7476C65.3282 86.8346 64.9753 86.6228 64.8883 86.2745C64.8013 85.9262 65.0131 85.5733 65.3614 85.4863C66.2342 85.2683 67.0739 85.0441 67.8807 84.814C68.2259 84.7155 68.5855 84.9155 68.684 85.2607ZM63.5918 86.5786C63.6693 86.9291 63.4479 87.2761 63.0974 87.3535C62.2602 87.5386 61.3977 87.7186 60.51 87.8936C60.1578 87.963 59.816 87.7337 59.7465 87.3815C59.6771 87.0293 59.9063 86.6875 60.2586 86.6181C61.1371 86.4449 61.9898 86.2669 62.8168 86.0842C63.1673 86.0067 63.5143 86.228 63.5918 86.5786ZM58.4373 87.6256C58.4998 87.9791 58.2639 88.3164 57.9104 88.3789C57.4815 88.4547 57.0472 88.5295 56.6076 88.6032C56.2536 88.6626 55.9184 88.4238 55.859 88.0697C55.7997 87.7157 56.0385 87.3805 56.3926 87.3211C56.8285 87.248 57.259 87.1739 57.6841 87.0987C58.0376 87.0362 58.3748 87.2721 58.4373 87.6256Z" fill="#D5D7DE"/>
<path d="M95.9832 83.6357H45.0551C43.7296 83.6357 42.6551 84.7103 42.6551 86.0357V137.421C42.6551 138.747 43.7296 139.821 45.0551 139.821H95.9832V83.6357Z" fill="url(#paint9_linear_441_3156)"/>
<rect x="76.5" y="125" width="14" height="8" rx="1" fill="white"/>
<path fill-rule="evenodd" clip-rule="evenodd" d="M95.5 83.6357H42.5979L35.901 99.5294C35.2376 101.104 35.4158 103.339 36.2989 104.521C36.6453 104.985 37.0668 105.236 37.5 105.236H85.3996C86.0285 105.236 86.6209 104.708 86.9986 103.812L95.5 83.6357Z" fill="url(#paint10_linear_441_3156)"/>
<path d="M115.799 83.6357H95.9832V139.821H115.799C116.904 139.821 117.799 138.926 117.799 137.821V85.6357C117.799 84.5312 116.904 83.6357 115.799 83.6357Z" fill="url(#paint11_linear_441_3156)"/>
<path fill-rule="evenodd" clip-rule="evenodd" d="M95.5 83.6357H117.791L125.183 100.67C125.784 102.054 125.505 103.89 124.562 104.771C124.237 105.075 123.859 105.236 123.474 105.236H105.985C105.293 105.236 104.648 104.717 104.276 103.86L95.5 83.6357Z" fill="url(#paint12_linear_441_3156)"/>
<path d="M93.8189 50.0978L96.3232 51.63L120.5 40.924L94.0828 48.2224C93.5333 48.3742 93.2109 48.9427 93.3627 49.4922C93.4325 49.7447 93.5956 49.9611 93.8189 50.0978Z" fill="url(#paint13_linear_441_3156)"/>
<path d="M96.3232 51.6301L96.8324 57.8937L120.5 40.924L96.3232 51.6301Z" fill="#0E6DFA"/>
<path fill-rule="evenodd" clip-rule="evenodd" d="M99.982 53.7977L96.8324 57.8937L120.5 40.924L99.982 53.7977Z" fill="#0B57C8"/>
<path d="M99.9821 53.7977L109.896 59.8487C110.383 60.1457 111.018 59.992 111.315 59.5054C111.331 59.4792 111.346 59.4523 111.359 59.4248L120.5 40.924L99.9821 53.7977Z" fill="url(#paint14_linear_441_3156)"/>
<defs>
<filter id="filter0_f_441_3156" x="33.5" y="128" width="82" height="20" filterUnits="userSpaceOnUse" color-interpolation-filters="sRGB">
<feFlood flood-opacity="0" result="BackgroundImageFix"/>
<feBlend mode="normal" in="SourceGraphic" in2="BackgroundImageFix" result="shape"/>
<feGaussianBlur stdDeviation="3" result="effect1_foregroundBlur_441_3156"/>
</filter>
<linearGradient id="paint0_linear_441_3156" x1="78.6176" y1="140.545" x2="78.5817" y2="133.997" gradientUnits="userSpaceOnUse">
<stop stop-color="#DEDFE5"/>
<stop offset="1" stop-color="#C5C8D1"/>
</linearGradient>
<linearGradient id="paint1_linear_441_3156" x1="33" y1="128" x2="33.5" y2="50" gradientUnits="userSpaceOnUse">
<stop stop-color="#F2F3F5"/>
<stop offset="1" stop-color="#CFDAE4"/>
</linearGradient>
<linearGradient id="paint2_linear_441_3156" x1="29.25" y1="37" x2="29.2064" y2="14.9992" gradientUnits="userSpaceOnUse">
<stop stop-color="#F2F3F5"/>
<stop offset="1" stop-color="#CFDAE4"/>
</linearGradient>
<linearGradient id="paint3_linear_441_3156" x1="138" y1="116" x2="137.13" y2="26.0047" gradientUnits="userSpaceOnUse">
<stop stop-color="#F2F3F5"/>
<stop offset="1" stop-color="#CFDAE4"/>
</linearGradient>
<linearGradient id="paint4_linear_441_3156" x1="143.996" y1="106.774" x2="143.996" y2="124" gradientUnits="userSpaceOnUse">
<stop stop-color="#F2F3F5"/>
<stop offset="1" stop-color="#DCDEE0"/>
</linearGradient>
<linearGradient id="paint5_linear_441_3156" x1="143.995" y1="134" x2="143.995" y2="124" gradientUnits="userSpaceOnUse">
<stop stop-color="white"/>
<stop offset="1" stop-color="#DCDEE0"/>
</linearGradient>
<linearGradient id="paint6_linear_441_3156" x1="20.9955" y1="117.774" x2="20.9955" y2="135" gradientUnits="userSpaceOnUse">
<stop stop-color="#F2F3F5"/>
<stop offset="1" stop-color="#DCDEE0"/>
</linearGradient>
<linearGradient id="paint7_linear_441_3156" x1="20.9954" y1="145" x2="20.9954" y2="135" gradientUnits="userSpaceOnUse">
<stop stop-color="white"/>
<stop offset="1" stop-color="#DCDEE0"/>
</linearGradient>
<linearGradient id="paint8_linear_441_3156" x1="111.25" y1="31.5" x2="111.229" y2="20.9996" gradientUnits="userSpaceOnUse">
<stop stop-color="#F2F3F5"/>
<stop offset="1" stop-color="#DCDEE0"/>
</linearGradient>
<linearGradient id="paint9_linear_441_3156" x1="92" y1="86.5001" x2="40.3384" y2="137.824" gradientUnits="userSpaceOnUse">
<stop stop-color="#DFDFE5"/>
<stop offset="1" stop-color="#C6C9D2"/>
</linearGradient>
<linearGradient id="paint10_linear_441_3156" x1="56" y1="84.0001" x2="63" y2="105" gradientUnits="userSpaceOnUse">
<stop stop-color="#DADCE0"/>
<stop offset="1" stop-color="#F2F3F5"/>
</linearGradient>
<linearGradient id="paint11_linear_441_3156" x1="142.9" y1="132.836" x2="93.1166" y2="113.025" gradientUnits="userSpaceOnUse">
<stop stop-color="#DEDFE5"/>
<stop offset="1" stop-color="#D2D4DC"/>
</linearGradient>
<linearGradient id="paint12_linear_441_3156" x1="112" y1="82.5001" x2="126.096" y2="97.157" gradientUnits="userSpaceOnUse">
<stop stop-color="#DADCE0"/>
<stop offset="1" stop-color="#F2F3F5"/>
</linearGradient>
<linearGradient id="paint13_linear_441_3156" x1="99.9712" y1="49.9463" x2="106.086" y2="35.0497" gradientUnits="userSpaceOnUse">
<stop stop-color="#0E6DFA"/>
<stop offset="1" stop-color="#86B5FC"/>
</linearGradient>
<linearGradient id="paint14_linear_441_3156" x1="105" y1="57" x2="120.5" y2="41" gradientUnits="userSpaceOnUse">
<stop stop-color="#0E6DFA"/>
<stop offset="1" stop-color="#86B5FC"/>
</linearGradient>
</defs>
</svg>
