<svg width="161" height="160" viewBox="0 0 161 160" fill="none" xmlns="http://www.w3.org/2000/svg">
<path opacity="0.4" fill-rule="evenodd" clip-rule="evenodd" d="M36.5 131V53H16.5V73H2.5V131H36.5Z" fill="url(#paint0_linear_665_21624)"/>
<path opacity="0.4" fill-rule="evenodd" clip-rule="evenodd" d="M36 2C39.8276 2 43.0644 4.53 44.1291 8.00894L44.2508 8.00381L44.5 8C48.9183 8 52.5 11.5817 52.5 16C52.5 20.4183 48.9183 24 44.5 24C44.1614 24 43.8276 23.979 43.5 23.9381L43.5 24H29.5L29.5008 23.8259C29.0191 23.9397 28.5166 24 28 24C24.4101 24 21.5 21.0899 21.5 17.5C21.5 14.073 24.152 11.2655 27.5157 11.0178C27.5052 10.847 27.5 10.6741 27.5 10.5C27.5 5.80558 31.3056 2 36 2Z" fill="url(#paint1_linear_665_21624)"/>
<path opacity="0.4" fill-rule="evenodd" clip-rule="evenodd" d="M126.5 29H149.346V43.7216H159.5V131H126.5V29Z" fill="url(#paint2_linear_665_21624)"/>
<path d="M79.2659 48.0104H81.9178C88.4121 48.0104 93.6764 53.2764 93.6764 59.7727V74.4881H103.684V59.7727C103.684 47.7482 93.9386 38 81.9178 38H79.2659C67.2451 38 57.5 47.7482 57.5 59.7727V74.4881H67.5073V59.7727C67.5073 53.2764 72.7716 48.0104 79.2659 48.0104Z" fill="url(#paint3_linear_665_21624)"/>
<path d="M44.5 68C44.5 66.3431 45.8431 65 47.5 65H113.5C115.157 65 116.5 66.3431 116.5 68V115C116.5 116.657 115.157 118 113.5 118H47.5C45.8431 118 44.5 116.657 44.5 115V68Z" fill="url(#paint4_linear_665_21624)"/>
<path d="M83.9083 93.8018C87.2858 92.6391 89.7126 89.4327 89.7126 85.6593C89.7126 80.9048 85.8593 77.0503 81.1063 77.0503C76.3533 77.0503 72.5 80.9048 72.5 85.6593C72.5 89.3952 74.8787 92.5765 78.2042 93.7677V102.927C78.2042 104.503 79.4811 105.78 81.0562 105.78C82.6314 105.78 83.9083 104.503 83.9083 102.927V93.8018Z" fill="url(#paint5_linear_665_21624)"/>
<g opacity="0.4" filter="url(#filter0_f_665_21624)">
<path d="M80.5 140C99.83 140 115.5 138.209 115.5 136C115.5 133.791 99.83 132 80.5 132C61.17 132 45.5 133.791 45.5 136C45.5 138.209 61.17 140 80.5 140Z" fill="url(#paint6_linear_665_21624)"/>
</g>
<g opacity="0.8">
<path d="M144.96 107.509L149.143 122.735C149.289 123.268 148.976 123.818 148.444 123.964C148.357 123.988 148.268 124 148.179 124H139.812C139.259 124 138.812 123.552 138.812 123C138.812 122.911 138.824 122.821 138.848 122.735L143.031 107.509C143.177 106.977 143.728 106.664 144.26 106.81C144.6 106.904 144.866 107.169 144.96 107.509Z" fill="url(#paint7_linear_665_21624)"/>
<path d="M145.494 124H142.497V134H145.494V124Z" fill="url(#paint8_linear_665_21624)"/>
</g>
<path d="M21.9596 118.509L26.1431 133.735C26.2894 134.268 25.9763 134.818 25.4438 134.964C25.3574 134.988 25.2683 135 25.1788 135H16.8118C16.2595 135 15.8118 134.552 15.8118 134C15.8118 133.911 15.8238 133.821 15.8475 133.735L20.031 118.509C20.1774 117.977 20.7277 117.664 21.2602 117.81C21.6004 117.904 21.8661 118.169 21.9596 118.509Z" fill="url(#paint9_linear_665_21624)"/>
<path d="M22.494 135H19.4966V145H22.494V135Z" fill="url(#paint10_linear_665_21624)"/>
<path d="M110.647 122.978C111.328 123.658 112.442 123.658 113.122 122.978L113.611 122.489L115.884 124.762C116.565 125.442 117.679 125.442 118.359 124.762C119.04 124.081 119.04 122.967 118.359 122.287L116.086 120.014L117.494 118.606L118.892 120.004C119.573 120.684 120.686 120.684 121.367 120.004C122.048 119.323 122.048 118.209 121.367 117.529L119.969 116.131L123.08 113.02C124.036 113.564 125.141 113.875 126.319 113.875C129.94 113.875 132.875 110.94 132.875 107.319C132.875 103.699 129.94 100.764 126.319 100.764C122.699 100.764 119.764 103.699 119.764 107.319C119.764 108.49 120.071 109.59 120.609 110.541L110.647 120.503C109.967 121.183 109.967 122.297 110.647 122.978ZM126.326 104.277C128.01 104.277 129.375 105.642 129.375 107.326C129.375 109.01 128.01 110.375 126.326 110.375C124.642 110.375 123.277 109.01 123.277 107.326C123.277 105.642 124.642 104.277 126.326 104.277Z" fill="url(#paint11_linear_665_21624)"/>
<defs>
<filter id="filter0_f_665_21624" x="39.5" y="126" width="82" height="20" filterUnits="userSpaceOnUse" color-interpolation-filters="sRGB">
<feFlood flood-opacity="0" result="BackgroundImageFix"/>
<feBlend mode="normal" in="SourceGraphic" in2="BackgroundImageFix" result="shape"/>
<feGaussianBlur stdDeviation="3" result="effect1_foregroundBlur_665_21624"/>
</filter>
<linearGradient id="paint0_linear_665_21624" x1="28" y1="131" x2="28.5" y2="53" gradientUnits="userSpaceOnUse">
<stop stop-color="#F2F3F5"/>
<stop offset="1" stop-color="#CFDAE4"/>
</linearGradient>
<linearGradient id="paint1_linear_665_21624" x1="29.25" y1="24" x2="29.2064" y2="1.99918" gradientUnits="userSpaceOnUse">
<stop stop-color="#F2F3F5"/>
<stop offset="1" stop-color="#CFDAE4"/>
</linearGradient>
<linearGradient id="paint2_linear_665_21624" x1="134.75" y1="131" x2="133.869" y2="29.0034" gradientUnits="userSpaceOnUse">
<stop stop-color="#F2F3F5"/>
<stop offset="1" stop-color="#CFDAE4"/>
</linearGradient>
<linearGradient id="paint3_linear_665_21624" x1="83.3085" y1="67.8539" x2="82.1755" y2="38.0301" gradientUnits="userSpaceOnUse">
<stop stop-color="#DEDFE5"/>
<stop offset="1" stop-color="#C5C8D1"/>
</linearGradient>
<linearGradient id="paint4_linear_665_21624" x1="115.326" y1="91.5" x2="44.4726" y2="91.9942" gradientUnits="userSpaceOnUse">
<stop stop-color="#DEDFE5"/>
<stop offset="1" stop-color="#C5C8D1"/>
</linearGradient>
<linearGradient id="paint5_linear_665_21624" x1="81.1063" y1="77.0503" x2="81.1063" y2="105.78" gradientUnits="userSpaceOnUse">
<stop stop-color="white"/>
<stop offset="1" stop-color="#F7F8FA"/>
</linearGradient>
<linearGradient id="paint6_linear_665_21624" x1="84.6176" y1="138.545" x2="84.5817" y2="131.997" gradientUnits="userSpaceOnUse">
<stop stop-color="#DEDFE5"/>
<stop offset="1" stop-color="#C5C8D1"/>
</linearGradient>
<linearGradient id="paint7_linear_665_21624" x1="143.995" y1="106.774" x2="143.995" y2="124" gradientUnits="userSpaceOnUse">
<stop stop-color="#F2F3F5"/>
<stop offset="1" stop-color="#DCDEE0"/>
</linearGradient>
<linearGradient id="paint8_linear_665_21624" x1="143.995" y1="134" x2="143.995" y2="124" gradientUnits="userSpaceOnUse">
<stop stop-color="white"/>
<stop offset="1" stop-color="#DCDEE0"/>
</linearGradient>
<linearGradient id="paint9_linear_665_21624" x1="20.9954" y1="117.774" x2="20.9954" y2="135" gradientUnits="userSpaceOnUse">
<stop stop-color="#F2F3F5"/>
<stop offset="1" stop-color="#DCDEE0"/>
</linearGradient>
<linearGradient id="paint10_linear_665_21624" x1="20.9953" y1="145" x2="20.9953" y2="135" gradientUnits="userSpaceOnUse">
<stop stop-color="white"/>
<stop offset="1" stop-color="#DCDEE0"/>
</linearGradient>
<linearGradient id="paint11_linear_665_21624" x1="127.314" y1="104.618" x2="107.524" y2="122.239" gradientUnits="userSpaceOnUse">
<stop stop-color="#0E6DFA"/>
<stop offset="1" stop-color="#86B5FC"/>
</linearGradient>
</defs>
</svg>
