<svg width="161" height="160" viewBox="0 0 161 160" fill="none" xmlns="http://www.w3.org/2000/svg">
<g opacity="0.8">
<path opacity="0.4" fill-rule="evenodd" clip-rule="evenodd" d="M36.5 131V53H16.5V73H2.5V131H36.5Z" fill="url(#paint0_linear_441_10780)"/>
<path opacity="0.4" fill-rule="evenodd" clip-rule="evenodd" d="M43 12C46.8276 12 50.0644 14.53 51.1291 18.0089L51.2508 18.0038L51.5 18C55.9183 18 59.5 21.5817 59.5 26C59.5 30.4183 55.9183 34 51.5 34C51.1614 34 50.8276 33.979 50.5 33.9381L50.5 34H36.5L36.5008 33.8259C36.0191 33.9397 35.5166 34 35 34C31.4101 34 28.5 31.0899 28.5 27.5C28.5 24.073 31.152 21.2655 34.5157 21.0178C34.5052 20.847 34.5 20.6741 34.5 20.5C34.5 15.8056 38.3056 12 43 12Z" fill="url(#paint1_linear_441_10780)"/>
<path opacity="0.4" fill-rule="evenodd" clip-rule="evenodd" d="M98.5161 7C100.368 7 101.934 8.20756 102.45 9.86804L102.629 9.86364C104.767 9.86364 106.5 11.5731 106.5 13.6818C106.5 15.7905 104.767 17.5 102.629 17.5C102.465 17.5 102.304 17.49 102.145 17.4704L102.145 17.5H95.371L95.3706 17.4171C95.1377 17.4713 94.8949 17.5 94.6452 17.5C92.9081 17.5 91.5 16.1111 91.5 14.3977C91.5 12.7619 92.7836 11.4218 94.4114 11.3039C94.4058 11.2226 94.4032 11.14 94.4032 11.0568C94.4032 8.8163 96.2446 7 98.5161 7Z" fill="url(#paint2_linear_441_10780)"/>
<path opacity="0.4" fill-rule="evenodd" clip-rule="evenodd" d="M123.5 15H145.731V29H154.5V106.369H123.5V15Z" fill="url(#paint3_linear_441_10780)"/>
</g>
<path d="M160.5 139H0.5V160H160.5V139Z" fill="url(#paint4_radial_441_10780)"/>
<path d="M80.5 61C84.366 61 87.5 64.134 87.5 68C87.5 70.1134 86.5634 72.008 85.0827 73.2915C84.2077 74.05 83.5007 75.0639 83.5007 76.2219L83.5 101.068C83.5 102.298 82.5028 103.295 81.2727 103.295H79.7273C78.4972 103.295 77.5 102.298 77.5 101.068L77.5002 76.2228C77.5003 75.0646 76.7931 74.0505 75.9178 73.292C74.4368 72.0085 73.5 70.1136 73.5 68C73.5 64.134 76.634 61 80.5 61Z" fill="url(#paint5_linear_441_10780)"/>
<g opacity="0.6">
<path fill-rule="evenodd" clip-rule="evenodd" d="M55.85 45.4481C57.202 44.0666 57.1782 41.8507 55.7967 40.4986C54.4153 39.1466 52.1993 39.1704 50.8473 40.5519C44.1403 47.4047 40 56.7952 40 67.1456C40 77.496 44.1403 86.8864 50.8473 93.7392C52.1993 95.1207 54.4153 95.1445 55.7967 93.7925C57.1782 92.4404 57.202 90.2245 55.85 88.843C50.3715 83.2453 47 75.5927 47 67.1456C47 58.6985 50.3715 51.0458 55.85 45.4481ZM66.8977 56.5623C68.2375 55.169 68.1941 52.9534 66.8008 51.6135C65.4075 50.2737 63.1918 50.3171 61.852 51.7104C57.978 55.7391 55.5909 61.2229 55.5909 67.257C55.5909 73.2911 57.978 78.7749 61.852 82.8036C63.1918 84.1969 65.4075 84.2403 66.8008 82.9004C68.1941 81.5606 68.2375 79.345 66.8977 77.9516C64.2272 75.1745 62.5909 71.4105 62.5909 67.257C62.5909 63.1035 64.2272 59.3395 66.8977 56.5623ZM93.4149 82.9005C92.0216 81.5606 91.9782 79.345 93.3181 77.9517C95.9886 75.1745 97.6249 71.4105 97.6249 67.257C97.6249 63.1035 95.9886 59.3395 93.3181 56.5623C91.9782 55.169 92.0216 52.9534 93.4149 51.6135C94.8083 50.2737 97.0239 50.3171 98.3637 51.7104C102.238 55.7391 104.625 61.2229 104.625 67.257C104.625 73.2911 102.238 78.7749 98.3637 82.8036C97.0239 84.1969 94.8083 84.2403 93.4149 82.9005ZM104.366 88.843C103.014 90.2245 103.038 92.4404 104.419 93.7925C105.801 95.1445 108.016 95.1207 109.369 93.7392C116.076 86.8864 120.216 77.496 120.216 67.1456C120.216 56.7951 116.076 47.4047 109.369 40.5519C108.016 39.1704 105.801 39.1466 104.419 40.4986C103.038 41.8507 103.014 44.0667 104.366 45.4481C109.844 51.0458 113.216 58.6985 113.216 67.1456C113.216 75.5927 109.844 83.2453 104.366 88.843Z" fill="url(#paint6_linear_441_10780)"/>
</g>
<path d="M34.5 113C34.5 111.343 35.8431 110 37.5 110H123.5C125.157 110 126.5 111.343 126.5 113V137C126.5 138.657 125.157 140 123.5 140H37.5C35.8431 140 34.5 138.657 34.5 137V113Z" fill="url(#paint7_linear_441_10780)"/>
<path opacity="0.6" d="M119.386 116H41.6136C40.9986 116 40.5 116.499 40.5 117.114V132.886C40.5 133.501 40.9986 134 41.6136 134H119.386C120.001 134 120.5 133.501 120.5 132.886V117.114C120.5 116.499 120.001 116 119.386 116Z" fill="white"/>
<rect x="48.5" y="120" width="17" height="6" rx="1" fill="white"/>
<g opacity="0.8">
<path d="M144.96 107.509L149.143 122.735C149.289 123.268 148.976 123.818 148.444 123.964C148.357 123.988 148.268 124 148.179 124H139.812C139.259 124 138.812 123.552 138.812 123C138.812 122.911 138.824 122.821 138.848 122.735L143.031 107.509C143.177 106.977 143.728 106.664 144.26 106.81C144.6 106.904 144.866 107.169 144.96 107.509Z" fill="url(#paint8_linear_441_10780)"/>
<path d="M145.494 124H142.497V134H145.494V124Z" fill="url(#paint9_linear_441_10780)"/>
</g>
<path d="M21.9596 118.509L26.1431 133.735C26.2894 134.268 25.9763 134.818 25.4438 134.964C25.3574 134.988 25.2683 135 25.1788 135H16.8118C16.2595 135 15.8118 134.552 15.8118 134C15.8118 133.911 15.8238 133.821 15.8475 133.735L20.031 118.509C20.1774 117.977 20.7277 117.664 21.2602 117.81C21.6004 117.904 21.8661 118.169 21.9596 118.509Z" fill="url(#paint10_linear_441_10780)"/>
<path d="M22.494 135H19.4966V145H22.494V135Z" fill="url(#paint11_linear_441_10780)"/>
<path fill-rule="evenodd" clip-rule="evenodd" d="M110.874 88.6566C109.819 86.8921 107.181 86.8921 106.126 88.6566L96.0379 105.53C94.9829 107.294 96.3017 109.5 98.4117 109.5H118.588C120.698 109.5 122.017 107.294 120.962 105.53L110.874 88.6566ZM107.38 93.6616C107.675 93.3316 108.048 93.1666 108.5 93.1666H108.498C108.949 93.1671 109.323 93.3321 109.618 93.6616C109.914 93.991 110.044 94.3816 110.009 94.8333L109.41 101.5C109.375 101.742 109.275 101.937 109.111 102.086C108.946 102.234 108.742 102.308 108.499 102.307C108.256 102.307 108.052 102.233 107.887 102.086C107.723 101.939 107.623 101.743 107.588 101.5L106.989 94.8333C106.955 94.3821 107.085 93.9916 107.38 93.6616ZM109.451 106.109C109.199 106.352 108.882 106.483 108.5 106.5C108.118 106.482 107.801 106.351 107.549 106.109C107.297 105.867 107.172 105.554 107.172 105.172C107.172 104.789 107.297 104.472 107.549 104.221C107.801 103.97 108.118 103.844 108.5 103.843C108.882 103.843 109.199 103.969 109.451 104.221C109.702 104.473 109.828 104.79 109.828 105.172C109.828 105.553 109.702 105.866 109.451 106.109Z" fill="url(#paint12_linear_441_10780)"/>
<defs>
<linearGradient id="paint0_linear_441_10780" x1="28" y1="131" x2="28.5" y2="53" gradientUnits="userSpaceOnUse">
<stop stop-color="#F2F3F5"/>
<stop offset="1" stop-color="#CFDAE4"/>
</linearGradient>
<linearGradient id="paint1_linear_441_10780" x1="36.25" y1="34" x2="36.2064" y2="11.9992" gradientUnits="userSpaceOnUse">
<stop stop-color="#F2F3F5"/>
<stop offset="1" stop-color="#CFDAE4"/>
</linearGradient>
<linearGradient id="paint2_linear_441_10780" x1="95.25" y1="17.5" x2="95.2295" y2="6.99961" gradientUnits="userSpaceOnUse">
<stop stop-color="#F2F3F5"/>
<stop offset="1" stop-color="#CFDAE4"/>
</linearGradient>
<linearGradient id="paint3_linear_441_10780" x1="131.25" y1="106.369" x2="130.498" y2="15.0024" gradientUnits="userSpaceOnUse">
<stop stop-color="#F2F3F5"/>
<stop offset="1" stop-color="#CFDAE4"/>
</linearGradient>
<radialGradient id="paint4_radial_441_10780" cx="0" cy="0" r="1" gradientUnits="userSpaceOnUse" gradientTransform="translate(-75.22 79.5) rotate(90) scale(160 11.5153)">
<stop stop-color="#EBEDF0"/>
<stop offset="1" stop-color="white" stop-opacity="0"/>
</radialGradient>
<linearGradient id="paint5_linear_441_10780" x1="81.3235" y1="95.6054" x2="76.3979" y2="61.7006" gradientUnits="userSpaceOnUse">
<stop stop-color="#DEDFE5"/>
<stop offset="1" stop-color="#C5C8D1"/>
</linearGradient>
<linearGradient id="paint6_linear_441_10780" x1="80.5" y1="46" x2="76.5706" y2="94.6828" gradientUnits="userSpaceOnUse">
<stop stop-color="#D8D9E0"/>
<stop offset="1" stop-color="#DFE5ED"/>
</linearGradient>
<linearGradient id="paint7_linear_441_10780" x1="125" y1="125" x2="34.4831" y2="126.425" gradientUnits="userSpaceOnUse">
<stop stop-color="#DEDFE5"/>
<stop offset="1" stop-color="#C5C8D1"/>
</linearGradient>
<linearGradient id="paint8_linear_441_10780" x1="143.995" y1="106.774" x2="143.995" y2="124" gradientUnits="userSpaceOnUse">
<stop stop-color="#F2F3F5"/>
<stop offset="1" stop-color="#DCDEE0"/>
</linearGradient>
<linearGradient id="paint9_linear_441_10780" x1="143.995" y1="134" x2="143.995" y2="124" gradientUnits="userSpaceOnUse">
<stop stop-color="white"/>
<stop offset="1" stop-color="#DCDEE0"/>
</linearGradient>
<linearGradient id="paint10_linear_441_10780" x1="20.9954" y1="117.774" x2="20.9954" y2="135" gradientUnits="userSpaceOnUse">
<stop stop-color="#F2F3F5"/>
<stop offset="1" stop-color="#DCDEE0"/>
</linearGradient>
<linearGradient id="paint11_linear_441_10780" x1="20.9953" y1="145" x2="20.9953" y2="135" gradientUnits="userSpaceOnUse">
<stop stop-color="white"/>
<stop offset="1" stop-color="#DCDEE0"/>
</linearGradient>
<linearGradient id="paint12_linear_441_10780" x1="101.944" y1="106.014" x2="119.864" y2="86.0997" gradientUnits="userSpaceOnUse">
<stop stop-color="#FA8C16"/>
<stop offset="1" stop-color="#FCC58A"/>
</linearGradient>
</defs>
</svg>
