<svg width="108" height="102" viewBox="0 0 108 102" fill="none" xmlns="http://www.w3.org/2000/svg">
<path fill-rule="evenodd" clip-rule="evenodd" d="M105.962 81.2418L54.0001 66.9814L2.03857 81.2418L54.0001 95.5021L105.962 81.2418ZM97.0456 81.2419L53.7444 69.3583L10.4431 81.2419L53.7444 93.1255L97.0456 81.2419Z" fill="url(#paint0_linear_269_16030)"/>
<g opacity="0.3" filter="url(#filter0_df_269_16030)">
<path d="M54.5924 76.7317L76.5184 82.7887L54.5924 88.8457L32.6665 82.7887L54.5924 76.7317Z" fill="url(#paint1_linear_269_16030)"/>
</g>
<path fill-rule="evenodd" clip-rule="evenodd" d="M54.1416 67.022L54.1451 67.0211L53.8564 66.9418L53.8529 66.9428L53.8494 66.9418L53.5607 67.0211L53.5642 67.022L42.0978 70.1689L41.8864 70.1108L41.5977 70.19L41.8092 70.2481L30.6392 73.3136L30.5161 73.2798L30.2274 73.359L30.3505 73.3928L1.89486 81.2022L2.03847 81.2416L1.89404 81.2812L53.5642 95.4616L53.5615 95.4623L53.8502 95.5415L53.8529 95.5408L53.8556 95.5415L54.1442 95.4623L54.1416 95.4616L105.812 81.2812L105.667 81.2416L105.811 81.2022L77.3553 73.3928L77.4784 73.359L77.1897 73.2798L77.0666 73.3136L65.8961 70.2479L66.107 70.19L65.8184 70.1108L65.6074 70.1687L54.1416 67.022ZM53.8529 67.1012L42.3865 70.2481L53.8524 73.3948L65.3187 70.2479L53.8529 67.1012ZM65.6074 70.3272L54.141 73.474L65.3116 76.5396L76.7779 73.3928L65.6074 70.3272ZM77.0666 73.472L65.6002 76.6189L79.6116 80.4641L91.078 77.3173L77.0666 73.472ZM91.3666 77.3965L79.9003 80.5434L93.8479 84.3711L93.5592 84.4504L79.6116 80.6226L68.4416 83.6881L82.4529 87.5334L105.378 81.2418L91.3666 77.3965ZM82.1643 87.6126L68.1529 83.7673L54.141 87.6127L68.1524 91.458L82.1643 87.6126ZM67.8637 91.5372L53.8524 87.692L39.8415 91.5371L53.8529 95.3824L67.8637 91.5372ZM39.5529 91.4579L53.5637 87.6127L39.5523 83.7675L25.5415 87.6126L39.5529 91.4579ZM25.2528 87.5334L39.2637 83.6882L28.0931 80.6226L14.1455 84.4504L13.8568 84.3711L27.8044 80.5434L16.3386 77.3967L2.32779 81.2418L25.2528 87.5334ZM16.6273 77.3174L28.0931 80.4641L42.105 76.6187L30.6392 73.472L16.6273 77.3174ZM30.9278 73.3928L42.3937 76.5395L53.5637 73.474L42.0978 70.3273L30.9278 73.3928ZM53.8524 73.5532L42.6823 76.6187L53.8529 79.6844L65.0229 76.6189L53.8524 73.5532ZM65.3116 76.6981L54.1416 79.7636L68.1529 83.6089L79.3229 80.5434L65.3116 76.6981ZM67.8642 83.6881L53.8529 79.8428L39.841 83.6882L53.8524 87.5335L67.8642 83.6881ZM39.5523 83.609L53.5642 79.7636L42.3937 76.6979L28.3818 80.5434L39.5523 83.609Z" fill="url(#paint2_linear_269_16030)"/>
<path fill-rule="evenodd" clip-rule="evenodd" d="M105.811 81.2812L53.8491 95.5415L53.5604 95.4623L105.522 81.202L105.811 81.2812Z" fill="url(#paint3_linear_269_16030)"/>
<path fill-rule="evenodd" clip-rule="evenodd" d="M1.89394 81.2812L53.8555 95.5415L54.1441 95.4623L2.18262 81.202L1.89394 81.2812Z" fill="url(#paint4_linear_269_16030)"/>
<g filter="url(#filter1_d_269_16030)">
<path d="M86.2186 15.2712C84.9936 12.3149 84.2739 12.5362 83.2207 12.3088L76.8367 11.8558L74.8864 19.9667L86.7423 20.8079C86.9483 20.0587 87.3924 18.1042 86.2186 15.2712Z" fill="url(#paint5_linear_269_16030)"/>
<path d="M77.1907 12.3392L83.1564 12.7625C83.3033 12.7936 83.4305 12.8161 83.5442 12.8362C83.8952 12.8983 84.1165 12.9374 84.3839 13.1346C84.7424 13.3989 85.1894 13.9817 85.7962 15.4462C86.7597 17.7713 86.5808 19.4589 86.3914 20.3247L75.4571 19.5489L77.1907 12.3392Z" stroke="url(#paint6_linear_269_16030)" stroke-width="0.914286"/>
</g>
<g filter="url(#filter2_d_269_16030)">
<path d="M39.9014 9.23535L84.1331 12.3734C81.5795 12.1923 80.1949 18.0518 79.8381 21.2345C79.0057 28.6609 76.2407 44.8105 75.4877 50.2566C74.5464 57.0642 72.043 66.5107 67.3213 68.4672C63.5439 70.0324 61.6855 66.0814 61.2285 63.9103C58.8623 64.9645 56.3791 67.6667 47.2251 67.4997C40.2681 67.3728 29.6569 63.198 25.2048 61.3545C30.0236 58.0301 32.8081 52.9248 34.089 45.9446C35.5833 37.8014 33.7474 25.2989 34.6944 18.0318C35.7004 10.3122 38.4903 9.74629 39.9014 9.23535Z" fill="url(#paint7_linear_269_16030)"/>
<path d="M61.6759 63.8161L61.5593 63.2624L61.0425 63.4927C60.5671 63.7045 60.0829 63.9821 59.5717 64.2752C59.4188 64.3629 59.2634 64.452 59.1052 64.541C58.4061 64.9347 57.6099 65.354 56.6092 65.7359C54.6121 66.498 51.7625 67.1253 47.2334 67.0426C43.8239 66.9804 39.4841 65.9223 35.4134 64.635C31.7847 63.4874 28.4025 62.1683 26.1389 61.2444C30.671 57.8287 33.3032 52.7597 34.5386 46.0271C35.2961 41.8995 35.2074 36.6887 35.0539 31.6457C35.0387 31.1465 35.0229 30.649 35.0071 30.1544C34.863 25.6214 34.7263 21.3251 35.1478 18.0908C35.645 14.2748 36.5749 12.3029 37.4936 11.2272C38.3067 10.2753 39.1362 9.98667 39.8221 9.74802C39.8704 9.73121 39.918 9.71466 39.9648 9.69814L82.3057 12.7021C82.2309 12.7764 82.1586 12.8544 82.0887 12.9355C81.545 13.5661 81.0986 14.4363 80.7353 15.378C80.0068 17.2662 79.5649 19.5681 79.3838 21.1836C78.854 25.9108 77.544 34.151 76.466 40.9315C75.8504 44.8039 75.3105 48.2002 75.0348 50.194C74.567 53.5773 73.7124 57.6035 72.3957 61.0165C71.7373 62.7229 70.9691 64.2614 70.0861 65.4864C69.2016 66.7135 68.221 67.5996 67.1463 68.0449C66.2811 68.4034 65.5584 68.4344 64.9544 68.2782C64.3457 68.1208 63.817 67.7627 63.3638 67.2777C62.4469 66.2966 61.8944 64.8545 61.6759 63.8161Z" stroke="url(#paint8_linear_269_16030)" stroke-width="0.914286"/>
</g>
<g opacity="0.8" filter="url(#filter3_f_269_16030)">
<rect x="42.4478" y="23.2342" width="8.22857" height="7.31429" rx="0.914286" transform="rotate(4.05812 42.4478 23.2342)" fill="#ABC9F5"/>
</g>
<g opacity="0.8" filter="url(#filter4_f_269_16030)">
<path d="M41.5413 36.0021C41.577 35.4984 42.0143 35.1191 42.518 35.1548L48.9019 35.6077C49.4056 35.6434 49.7849 36.0807 49.7492 36.5844L49.361 42.0564C49.3252 42.56 48.888 42.9394 48.3843 42.9037L42.0003 42.4507C41.4967 42.415 41.1173 41.9777 41.153 41.474L41.5413 36.0021Z" fill="#ABC9F5"/>
</g>
<g opacity="0.8" filter="url(#filter5_f_269_16030)">
<path d="M41.248 48.7279C41.3252 48.2624 41.744 47.9321 42.2147 47.9655L47.9066 48.3693C48.4439 48.4074 48.832 48.8994 48.7439 49.4308L47.8427 54.8664C47.7655 55.3319 47.3467 55.6622 46.876 55.6289L41.1841 55.225C40.6468 55.1869 40.2587 54.6949 40.3468 54.1635L41.248 48.7279Z" fill="#ABC9F5"/>
</g>
<path d="M47.9428 70.3004C38.6291 68.3507 29.4508 63.9473 25.2046 61.3546C29.0703 62.8509 35.3619 65.4665 44.0653 66.8173C52.2247 68.0836 58.3629 65.5402 61.2283 63.9103C62.6641 69.5117 66.518 69.0213 68.2655 68.0759C67.2996 68.7712 64.8076 70.3053 62.567 70.8797C59.7664 71.5975 57.8777 72.3801 47.9428 70.3004Z" fill="url(#paint9_linear_269_16030)"/>
<g filter="url(#filter6_d_269_16030)">
<rect x="39.123" y="18.4154" width="8.22857" height="7.31429" rx="1.82857" transform="rotate(4.05812 39.123 18.4154)" fill="url(#paint10_linear_269_16030)"/>
<rect x="39.2925" y="18.6107" width="7.86286" height="6.94857" rx="1.64571" transform="rotate(4.05812 39.2925 18.6107)" stroke="url(#paint11_linear_269_16030)" stroke-width="0.365714"/>
</g>
<g filter="url(#filter7_d_269_16030)">
<path d="M51.1481 21.9047C51.2375 21.4524 51.6498 21.1374 52.1097 21.17L69.4234 22.3984C69.972 22.4373 70.3623 22.9482 70.2556 23.4877L69.8982 25.2955C69.8088 25.7478 69.3965 26.0628 68.9366 26.0302L51.6229 24.8018C51.0743 24.7629 50.684 24.252 50.7907 23.7125L51.1481 21.9047Z" fill="url(#paint12_linear_269_16030)" shape-rendering="crispEdges"/>
</g>
<g filter="url(#filter8_d_269_16030)">
<path d="M49.9431 33.8485C49.9788 33.3448 50.4161 32.9654 50.9198 33.0012L68.1266 34.2219C68.6751 34.2608 69.0655 34.7717 68.9588 35.3112L68.6014 37.119C68.512 37.5714 68.0997 37.8863 67.6398 37.8537L50.661 36.6491C50.1573 36.6134 49.778 36.1761 49.8137 35.6724L49.9431 33.8485Z" fill="url(#paint13_linear_269_16030)" shape-rendering="crispEdges"/>
</g>
<g filter="url(#filter9_d_269_16030)">
<path d="M48.1248 46.5516C48.1605 46.048 48.5978 45.6686 49.1014 45.7044L65.3962 46.8604C65.9448 46.8993 66.3351 47.4102 66.2285 47.9497L65.8711 49.7575C65.7816 50.2099 65.3694 50.5248 64.9094 50.4922L48.8426 49.3523C48.339 49.3166 47.9596 48.8793 47.9953 48.3756L48.1248 46.5516Z" fill="url(#paint14_linear_269_16030)" shape-rendering="crispEdges"/>
</g>
<g opacity="0.8" filter="url(#filter10_f_269_16030)">
<path d="M54.3833 27.5967C54.4878 27.1622 54.8912 26.8669 55.337 26.8985L72.6397 28.1261C73.2032 28.166 73.596 28.7025 73.4639 29.2518L73.2472 30.153C73.1427 30.5876 72.7394 30.8829 72.2936 30.8513L54.9909 29.6237C54.4273 29.5837 54.0345 29.0473 54.1666 28.498L54.3833 27.5967Z" fill="#ABC9F5"/>
</g>
<g opacity="0.8" filter="url(#filter11_f_269_16030)">
<path d="M53.2034 39.5792C53.2391 39.0755 53.6764 38.6962 54.1801 38.7319L71.3434 39.9496C71.9069 39.9896 72.2997 40.526 72.1676 41.0754L71.9509 41.9766C71.8464 42.4111 71.4431 42.7064 70.9973 42.6748L53.986 41.4679C53.4823 41.4322 53.1029 40.9949 53.1387 40.4912L53.2034 39.5792Z" fill="#ABC9F5"/>
</g>
<g opacity="0.8" filter="url(#filter12_f_269_16030)">
<path d="M52.2971 52.3471C52.3328 51.8434 52.7701 51.4641 53.2738 51.4998L69.5251 52.6528C70.0887 52.6928 70.4814 53.2292 70.3494 53.7785L70.1327 54.6797C70.0282 55.1143 69.6248 55.4096 69.179 55.378L53.0797 54.2358C52.576 54.2001 52.1967 53.7628 52.2324 53.2591L52.2971 52.3471Z" fill="#ABC9F5"/>
</g>
<g filter="url(#filter13_d_269_16030)">
<path d="M38.1518 32.0953C38.2233 31.088 39.0979 30.3293 40.1052 30.4008L44.6652 30.7243C45.6726 30.7957 46.4313 31.6703 46.3598 32.6777L46.101 36.3256C46.0295 37.333 45.1549 38.0917 44.1476 38.0202L39.5876 37.6967C38.5803 37.6252 37.8216 36.7507 37.893 35.7433L38.1518 32.0953Z" fill="url(#paint15_linear_269_16030)"/>
<path d="M40.0923 30.5832L44.6523 30.9067C45.5589 30.971 46.2417 31.7581 46.1774 32.6647L45.9186 36.3127C45.8543 37.2193 45.0671 37.9021 44.1605 37.8378L39.6006 37.5143C38.6939 37.45 38.0111 36.6629 38.0754 35.7563L38.3342 32.1083C38.3986 31.2017 39.1857 30.5188 40.0923 30.5832Z" stroke="url(#paint16_linear_269_16030)" stroke-width="0.365714"/>
</g>
<g filter="url(#filter14_d_269_16030)">
<path d="M36.8755 44.6658C37.0299 43.7348 37.8674 43.0741 38.8088 43.1409L42.6688 43.4148C43.7434 43.491 44.5196 44.475 44.3434 45.5378L43.7426 49.1616C43.5882 50.0926 42.7506 50.7532 41.8092 50.6865L37.9492 50.4126C36.8746 50.3364 36.0985 49.3523 36.2747 48.2895L36.8755 44.6658Z" fill="url(#paint17_linear_269_16030)"/>
<path d="M38.7959 43.3233L42.6559 43.5972C43.623 43.6658 44.3216 44.5514 44.163 45.5079L43.5622 49.1316C43.4232 49.9696 42.6694 50.5642 41.8221 50.5041L37.9622 50.2302C36.995 50.1616 36.2965 49.276 36.4551 48.3194L37.0559 44.6957C37.1948 43.8578 37.9486 43.2632 38.7959 43.3233Z" stroke="url(#paint18_linear_269_16030)" stroke-width="0.365714"/>
</g>
<g filter="url(#filter15_b_269_16030)">
<path d="M13.0093 39.1177C13.0093 32.5665 18.9757 26.7213 28.3061 22.9005L30.251 31.8618C23.2283 35.732 18.8272 41.2852 18.8272 47.4546C18.8272 48.3241 18.9146 49.1815 19.0845 50.0236C15.2315 46.851 13.0093 43.1158 13.0093 39.1177Z" fill="white" fill-opacity="0.5"/>
<path d="M13.0093 39.1177C13.0093 32.5665 18.9757 26.7213 28.3061 22.9005L30.251 31.8618C23.2283 35.732 18.8272 41.2852 18.8272 47.4546C18.8272 48.3241 18.9146 49.1815 19.0845 50.0236C15.2315 46.851 13.0093 43.1158 13.0093 39.1177Z" fill="url(#paint19_linear_269_16030)"/>
<path d="M13.2666 39.1177C13.2666 32.7989 18.976 27.0689 28.1199 23.2559L29.959 31.7295C22.9923 35.6185 18.5698 41.2022 18.5698 47.4546C18.5698 48.0995 18.617 48.7378 18.7093 49.3682C15.2279 46.3287 13.2666 42.8257 13.2666 39.1177Z" stroke="url(#paint20_linear_269_16030)" stroke-width="0.51468"/>
</g>
<g filter="url(#filter16_b_269_16030)">
<path d="M84.5444 36.6556C87.6776 39.8175 89.4767 43.5101 89.4767 47.4546C89.4767 48.3243 89.3892 49.1819 89.2193 50.0241C93.0726 46.8514 95.2951 43.1161 95.2951 39.1177C95.2951 35.245 93.2101 31.6189 89.5776 28.512L84.5444 36.6556Z" fill="white" fill-opacity="0.81"/>
<path d="M84.5444 36.6556C87.6776 39.8175 89.4767 43.5101 89.4767 47.4546C89.4767 48.3243 89.3892 49.1819 89.2193 50.0241C93.0726 46.8514 95.2951 43.1161 95.2951 39.1177C95.2951 35.245 93.2101 31.6189 89.5776 28.512L84.5444 36.6556Z" fill="url(#paint21_linear_269_16030)"/>
<path d="M89.734 47.4546C89.734 43.4873 87.9508 39.7853 84.8694 36.6193L89.6376 28.9044C93.0926 31.9355 95.0378 35.4248 95.0378 39.1177C95.0378 42.8259 93.0762 46.3291 89.5945 49.3688C89.6868 48.7382 89.734 48.0997 89.734 47.4546Z" stroke="url(#paint22_linear_269_16030)" stroke-width="0.51468"/>
</g>
<g filter="url(#filter17_d_269_16030)">
<path d="M90.4663 42.0007C90.4663 46.7722 86.5414 51.1632 80.0321 54.3766C73.5392 57.582 64.5513 59.5719 54.6094 59.5719C44.6676 59.5719 35.6796 57.582 29.1867 54.3766C22.6774 51.1632 18.7525 46.7722 18.7525 42.0007C18.7525 37.2292 22.6774 32.8382 29.1867 29.6247C35.6796 26.4194 44.6676 24.4295 54.6094 24.4295C64.5513 24.4295 73.5392 26.4194 80.0321 29.6247C86.5414 32.8382 90.4663 37.2292 90.4663 42.0007Z" stroke="url(#paint23_linear_269_16030)" stroke-width="0.51468" shape-rendering="crispEdges"/>
</g>
<g filter="url(#filter18_b_269_16030)">
<path d="M89.2172 50.0231C87.8639 56.7324 81.2767 62.475 71.9756 65.7404L76.4126 56.6478C81.5971 54.9546 85.982 52.6872 89.2172 50.0231Z" fill="white" fill-opacity="0.5"/>
<path d="M89.2172 50.0231C87.8639 56.7324 81.2767 62.475 71.9756 65.7404L76.4126 56.6478C81.5971 54.9546 85.982 52.6872 89.2172 50.0231Z" fill="url(#paint24_linear_269_16030)"/>
<path d="M76.5961 56.8585C81.4554 55.261 85.6213 53.157 88.7998 50.6865C87.1994 56.8215 81.0998 62.1214 72.4845 65.2842L76.5961 56.8585Z" stroke="url(#paint25_linear_269_16030)" stroke-width="0.51468"/>
</g>
<ellipse cx="45.7417" cy="74.2748" rx="0.732418" ry="0.74145" fill="url(#paint26_radial_269_16030)"/>
<circle opacity="0.5" cx="100.476" cy="24.0095" r="2.74286" fill="url(#paint27_radial_269_16030)"/>
<ellipse cx="58.999" cy="79.6081" rx="0.732418" ry="0.74145" fill="url(#paint28_radial_269_16030)"/>
<circle cx="28.0956" cy="45.6578" r="1.37143" fill="url(#paint29_radial_269_16030)"/>
<circle opacity="0.8" cx="13.4666" cy="11.8293" r="3.2" fill="url(#paint30_radial_269_16030)"/>
<path fill-rule="evenodd" clip-rule="evenodd" d="M76.4247 59.4806C74.6164 62.1305 71.1093 63.7281 66.893 63.4332C60.3447 62.9753 54.5655 58.1261 53.985 52.6021C53.8578 51.3925 53.9905 50.2509 54.344 49.2103C53.3439 50.6759 52.8634 52.4634 53.0702 54.4307C53.6508 59.9546 59.4299 64.8039 65.9782 65.2618C71.0927 65.6194 75.1637 63.1925 76.4247 59.4806Z" fill="url(#paint31_linear_269_16030)"/>
<path fill-rule="evenodd" clip-rule="evenodd" d="M76.7646 58.9348C77.531 57.5799 77.8802 55.9895 77.6985 54.2603C77.1179 48.7363 71.3388 43.887 64.7905 43.4291C59.0321 43.0265 54.5964 46.1537 54.0049 50.6705C55.6868 47.6971 59.378 45.8575 63.8765 46.172C70.4248 46.6299 76.2039 51.4792 76.7845 57.0032C76.8545 57.6695 76.8457 58.3152 76.7646 58.9348Z" fill="url(#paint32_linear_269_16030)"/>
<path opacity="0.5" fill-rule="evenodd" clip-rule="evenodd" d="M66.8929 63.4332C73.4412 63.8911 78.279 59.7843 77.6984 54.2603C77.1178 48.7363 71.3387 43.887 64.7904 43.4291C58.242 42.9712 53.4043 47.0781 53.9849 52.6021C54.5654 58.1261 60.3446 62.9753 66.8929 63.4332Z" fill="url(#paint33_linear_269_16030)"/>
<path fill-rule="evenodd" clip-rule="evenodd" d="M66.7495 62.0693C72.7654 62.49 76.8102 58.7306 76.3303 54.1646C75.8504 49.5986 70.9496 45.2137 64.9337 44.7931C58.9178 44.3724 54.873 48.1317 55.3529 52.6978C55.8328 57.2638 60.7336 61.6487 66.7495 62.0693ZM66.8929 63.4332C73.4412 63.8911 78.279 59.7843 77.6984 54.2603C77.1178 48.7363 71.3387 43.887 64.7904 43.4291C58.242 42.9712 53.4043 47.0781 53.9849 52.6021C54.5654 58.1261 60.3446 62.9753 66.8929 63.4332Z" fill="#2F335A"/>
<path d="M85.5309 77.708C85.8399 78.1074 85.4376 78.9363 84.6323 79.5594C83.827 80.1825 82.9236 80.3639 82.6146 79.9645C82.3056 79.5652 82.7079 78.7363 83.5132 78.1132C84.3186 77.4901 85.2219 77.3087 85.5309 77.708Z" fill="#20325F"/>
<path d="M70.7111 64.5803C70.7111 64.5803 70.6672 63.7766 71.7519 62.9374C72.8365 62.0981 73.6034 62.3423 73.6034 62.3423L85.5059 77.7249C85.5059 77.7249 84.7853 77.7071 83.8539 78.4277C82.7156 79.3086 82.6135 79.9629 82.6135 79.9629L70.7111 64.5803Z" fill="url(#paint34_linear_269_16030)"/>
<defs>
<filter id="filter0_df_269_16030" x="28.3998" y="72.4651" width="52.3854" height="20.6473" filterUnits="userSpaceOnUse" color-interpolation-filters="sRGB">
<feFlood flood-opacity="0" result="BackgroundImageFix"/>
<feColorMatrix in="SourceAlpha" type="matrix" values="0 0 0 0 0 0 0 0 0 0 0 0 0 0 0 0 0 0 127 0" result="hardAlpha"/>
<feOffset/>
<feGaussianBlur stdDeviation="2.13333"/>
<feComposite in2="hardAlpha" operator="out"/>
<feColorMatrix type="matrix" values="0 0 0 0 0 0 0 0 0 0.28 0 0 0 0 1 0 0 0 1 0"/>
<feBlend mode="normal" in2="BackgroundImageFix" result="effect1_dropShadow_269_16030"/>
<feBlend mode="normal" in="SourceGraphic" in2="effect1_dropShadow_269_16030" result="shape"/>
<feGaussianBlur stdDeviation="2.13333" result="effect2_foregroundBlur_269_16030"/>
</filter>
<filter id="filter1_d_269_16030" x="65.7434" y="2.71298" width="30.398" height="27.2377" filterUnits="userSpaceOnUse" color-interpolation-filters="sRGB">
<feFlood flood-opacity="0" result="BackgroundImageFix"/>
<feColorMatrix in="SourceAlpha" type="matrix" values="0 0 0 0 0 0 0 0 0 0 0 0 0 0 0 0 0 0 127 0" result="hardAlpha"/>
<feOffset/>
<feGaussianBlur stdDeviation="4.57143"/>
<feComposite in2="hardAlpha" operator="out"/>
<feColorMatrix type="matrix" values="0 0 0 0 0.160784 0 0 0 0 0.392157 0 0 0 0 0.992157 0 0 0 0.4 0"/>
<feBlend mode="normal" in2="BackgroundImageFix" result="effect1_dropShadow_269_16030"/>
<feBlend mode="normal" in="SourceGraphic" in2="effect1_dropShadow_269_16030" result="shape"/>
</filter>
<filter id="filter2_d_269_16030" x="16.0617" y="0.092494" width="77.2144" height="77.8751" filterUnits="userSpaceOnUse" color-interpolation-filters="sRGB">
<feFlood flood-opacity="0" result="BackgroundImageFix"/>
<feColorMatrix in="SourceAlpha" type="matrix" values="0 0 0 0 0 0 0 0 0 0 0 0 0 0 0 0 0 0 127 0" result="hardAlpha"/>
<feOffset/>
<feGaussianBlur stdDeviation="4.57143"/>
<feComposite in2="hardAlpha" operator="out"/>
<feColorMatrix type="matrix" values="0 0 0 0 0.160784 0 0 0 0 0.392157 0 0 0 0 0.992157 0 0 0 0.4 0"/>
<feBlend mode="normal" in2="BackgroundImageFix" result="effect1_dropShadow_269_16030"/>
<feBlend mode="normal" in="SourceGraphic" in2="effect1_dropShadow_269_16030" result="shape"/>
</filter>
<filter id="filter3_f_269_16030" x="40.1641" y="21.468" width="12.2577" height="11.4107" filterUnits="userSpaceOnUse" color-interpolation-filters="sRGB">
<feFlood flood-opacity="0" result="BackgroundImageFix"/>
<feBlend mode="normal" in="SourceGraphic" in2="BackgroundImageFix" result="shape"/>
<feGaussianBlur stdDeviation="0.914286" result="effect1_foregroundBlur_269_16030"/>
</filter>
<filter id="filter4_f_269_16030" x="39.3223" y="33.3239" width="12.2577" height="11.4107" filterUnits="userSpaceOnUse" color-interpolation-filters="sRGB">
<feFlood flood-opacity="0" result="BackgroundImageFix"/>
<feBlend mode="normal" in="SourceGraphic" in2="BackgroundImageFix" result="shape"/>
<feGaussianBlur stdDeviation="0.914286" result="effect1_foregroundBlur_269_16030"/>
</filter>
<filter id="filter5_f_269_16030" x="38.5059" y="46.1346" width="12.079" height="11.3252" filterUnits="userSpaceOnUse" color-interpolation-filters="sRGB">
<feFlood flood-opacity="0" result="BackgroundImageFix"/>
<feBlend mode="normal" in="SourceGraphic" in2="BackgroundImageFix" result="shape"/>
<feGaussianBlur stdDeviation="0.914286" result="effect1_foregroundBlur_269_16030"/>
</filter>
<filter id="filter6_d_269_16030" x="38.73" y="18.5402" width="9.39036" height="8.54307" filterUnits="userSpaceOnUse" color-interpolation-filters="sRGB">
<feFlood flood-opacity="0" result="BackgroundImageFix"/>
<feColorMatrix in="SourceAlpha" type="matrix" values="0 0 0 0 0 0 0 0 0 0 0 0 0 0 0 0 0 0 127 0" result="hardAlpha"/>
<feOffset dx="0.914286" dy="0.914286"/>
<feComposite in2="hardAlpha" operator="out"/>
<feColorMatrix type="matrix" values="0 0 0 0 0.14184 0 0 0 0 0.536085 0 0 0 0 0.895833 0 0 0 1 0"/>
<feBlend mode="normal" in2="BackgroundImageFix" result="effect1_dropShadow_269_16030"/>
<feBlend mode="normal" in="SourceGraphic" in2="effect1_dropShadow_269_16030" result="shape"/>
</filter>
<filter id="filter7_d_269_16030" x="50.7729" y="21.1677" width="20.4148" height="5.77903" filterUnits="userSpaceOnUse" color-interpolation-filters="sRGB">
<feFlood flood-opacity="0" result="BackgroundImageFix"/>
<feColorMatrix in="SourceAlpha" type="matrix" values="0 0 0 0 0 0 0 0 0 0 0 0 0 0 0 0 0 0 127 0" result="hardAlpha"/>
<feOffset dx="0.914286" dy="0.914286"/>
<feComposite in2="hardAlpha" operator="out"/>
<feColorMatrix type="matrix" values="0 0 0 0 0.629167 0 0 0 0 0.778801 0 0 0 0 1 0 0 0 1 0"/>
<feBlend mode="normal" in2="BackgroundImageFix" result="effect1_dropShadow_269_16030"/>
<feBlend mode="normal" in="SourceGraphic" in2="effect1_dropShadow_269_16030" result="shape"/>
</filter>
<filter id="filter8_d_269_16030" x="49.8115" y="32.9988" width="20.0793" height="5.77146" filterUnits="userSpaceOnUse" color-interpolation-filters="sRGB">
<feFlood flood-opacity="0" result="BackgroundImageFix"/>
<feColorMatrix in="SourceAlpha" type="matrix" values="0 0 0 0 0 0 0 0 0 0 0 0 0 0 0 0 0 0 127 0" result="hardAlpha"/>
<feOffset dx="0.914286" dy="0.914286"/>
<feComposite in2="hardAlpha" operator="out"/>
<feColorMatrix type="matrix" values="0 0 0 0 0.629167 0 0 0 0 0.778801 0 0 0 0 1 0 0 0 1 0"/>
<feBlend mode="normal" in2="BackgroundImageFix" result="effect1_dropShadow_269_16030"/>
<feBlend mode="normal" in="SourceGraphic" in2="effect1_dropShadow_269_16030" result="shape"/>
</filter>
<filter id="filter9_d_269_16030" x="47.9932" y="45.702" width="19.1672" height="5.70677" filterUnits="userSpaceOnUse" color-interpolation-filters="sRGB">
<feFlood flood-opacity="0" result="BackgroundImageFix"/>
<feColorMatrix in="SourceAlpha" type="matrix" values="0 0 0 0 0 0 0 0 0 0 0 0 0 0 0 0 0 0 127 0" result="hardAlpha"/>
<feOffset dx="0.914286" dy="0.914286"/>
<feComposite in2="hardAlpha" operator="out"/>
<feColorMatrix type="matrix" values="0 0 0 0 0.629167 0 0 0 0 0.778801 0 0 0 0 1 0 0 0 1 0"/>
<feBlend mode="normal" in2="BackgroundImageFix" result="effect1_dropShadow_269_16030"/>
<feBlend mode="normal" in="SourceGraphic" in2="effect1_dropShadow_269_16030" result="shape"/>
</filter>
<filter id="filter10_f_269_16030" x="52.3125" y="25.0676" width="23.0058" height="7.61454" filterUnits="userSpaceOnUse" color-interpolation-filters="sRGB">
<feFlood flood-opacity="0" result="BackgroundImageFix"/>
<feBlend mode="normal" in="SourceGraphic" in2="BackgroundImageFix" result="shape"/>
<feGaussianBlur stdDeviation="0.914286" result="effect1_foregroundBlur_269_16030"/>
</filter>
<filter id="filter11_f_269_16030" x="51.3077" y="36.901" width="22.7143" height="7.60465" filterUnits="userSpaceOnUse" color-interpolation-filters="sRGB">
<feFlood flood-opacity="0" result="BackgroundImageFix"/>
<feBlend mode="normal" in="SourceGraphic" in2="BackgroundImageFix" result="shape"/>
<feGaussianBlur stdDeviation="0.914286" result="effect1_foregroundBlur_269_16030"/>
</filter>
<filter id="filter12_f_269_16030" x="50.4014" y="49.6689" width="21.8022" height="7.53996" filterUnits="userSpaceOnUse" color-interpolation-filters="sRGB">
<feFlood flood-opacity="0" result="BackgroundImageFix"/>
<feBlend mode="normal" in="SourceGraphic" in2="BackgroundImageFix" result="shape"/>
<feGaussianBlur stdDeviation="0.914286" result="effect1_foregroundBlur_269_16030"/>
</filter>
<filter id="filter13_d_269_16030" x="37.8882" y="30.3961" width="9.39036" height="8.54307" filterUnits="userSpaceOnUse" color-interpolation-filters="sRGB">
<feFlood flood-opacity="0" result="BackgroundImageFix"/>
<feColorMatrix in="SourceAlpha" type="matrix" values="0 0 0 0 0 0 0 0 0 0 0 0 0 0 0 0 0 0 127 0" result="hardAlpha"/>
<feOffset dx="0.914286" dy="0.914286"/>
<feComposite in2="hardAlpha" operator="out"/>
<feColorMatrix type="matrix" values="0 0 0 0 0.895833 0 0 0 0 0.684715 0 0 0 0 0.14184 0 0 0 1 0"/>
<feBlend mode="normal" in2="BackgroundImageFix" result="effect1_dropShadow_269_16030"/>
<feBlend mode="normal" in="SourceGraphic" in2="effect1_dropShadow_269_16030" result="shape"/>
</filter>
<filter id="filter14_d_269_16030" x="36.2495" y="43.1363" width="9.03294" height="8.4691" filterUnits="userSpaceOnUse" color-interpolation-filters="sRGB">
<feFlood flood-opacity="0" result="BackgroundImageFix"/>
<feColorMatrix in="SourceAlpha" type="matrix" values="0 0 0 0 0 0 0 0 0 0 0 0 0 0 0 0 0 0 127 0" result="hardAlpha"/>
<feOffset dx="0.914286" dy="0.914286"/>
<feComposite in2="hardAlpha" operator="out"/>
<feColorMatrix type="matrix" values="0 0 0 0 0.8375 0 0 0 0 0.447365 0 0 0 0 0.0872396 0 0 0 1 0"/>
<feBlend mode="normal" in2="BackgroundImageFix" result="effect1_dropShadow_269_16030"/>
<feBlend mode="normal" in="SourceGraphic" in2="effect1_dropShadow_269_16030" result="shape"/>
</filter>
<filter id="filter15_b_269_16030" x="7.86248" y="17.7537" width="27.5353" height="37.4166" filterUnits="userSpaceOnUse" color-interpolation-filters="sRGB">
<feFlood flood-opacity="0" result="BackgroundImageFix"/>
<feGaussianBlur in="BackgroundImageFix" stdDeviation="2.5734"/>
<feComposite in2="SourceAlpha" operator="in" result="effect1_backgroundBlur_269_16030"/>
<feBlend mode="normal" in="SourceGraphic" in2="effect1_backgroundBlur_269_16030" result="shape"/>
</filter>
<filter id="filter16_b_269_16030" x="79.3976" y="23.3652" width="21.0441" height="31.8057" filterUnits="userSpaceOnUse" color-interpolation-filters="sRGB">
<feFlood flood-opacity="0" result="BackgroundImageFix"/>
<feGaussianBlur in="BackgroundImageFix" stdDeviation="2.5734"/>
<feComposite in2="SourceAlpha" operator="in" result="effect1_backgroundBlur_269_16030"/>
<feBlend mode="normal" in="SourceGraphic" in2="effect1_backgroundBlur_269_16030" result="shape"/>
</filter>
<filter id="filter17_d_269_16030" x="13.3483" y="19.0253" width="82.5221" height="45.9507" filterUnits="userSpaceOnUse" color-interpolation-filters="sRGB">
<feFlood flood-opacity="0" result="BackgroundImageFix"/>
<feColorMatrix in="SourceAlpha" type="matrix" values="0 0 0 0 0 0 0 0 0 0 0 0 0 0 0 0 0 0 127 0" result="hardAlpha"/>
<feOffset/>
<feGaussianBlur stdDeviation="2.5734"/>
<feComposite in2="hardAlpha" operator="out"/>
<feColorMatrix type="matrix" values="0 0 0 0 0.160784 0 0 0 0 0.392157 0 0 0 0 0.992157 0 0 0 0.72 0"/>
<feBlend mode="normal" in2="BackgroundImageFix" result="effect1_dropShadow_269_16030"/>
<feBlend mode="normal" in="SourceGraphic" in2="effect1_dropShadow_269_16030" result="shape"/>
</filter>
<filter id="filter18_b_269_16030" x="66.8288" y="44.8763" width="27.5353" height="26.0108" filterUnits="userSpaceOnUse" color-interpolation-filters="sRGB">
<feFlood flood-opacity="0" result="BackgroundImageFix"/>
<feGaussianBlur in="BackgroundImageFix" stdDeviation="2.5734"/>
<feComposite in2="SourceAlpha" operator="in" result="effect1_backgroundBlur_269_16030"/>
<feBlend mode="normal" in="SourceGraphic" in2="effect1_backgroundBlur_269_16030" result="shape"/>
</filter>
<linearGradient id="paint0_linear_269_16030" x1="54.0001" y1="66.9814" x2="54.0001" y2="95.5021" gradientUnits="userSpaceOnUse">
<stop stop-color="white" stop-opacity="0.03"/>
<stop offset="1" stop-color="#7AD7FF"/>
</linearGradient>
<linearGradient id="paint1_linear_269_16030" x1="53.4072" y1="77.7412" x2="54.5298" y2="88.7919" gradientUnits="userSpaceOnUse">
<stop stop-color="#64E3FF"/>
<stop offset="1" stop-color="#0075FF"/>
</linearGradient>
<linearGradient id="paint2_linear_269_16030" x1="54.001" y1="95.5018" x2="54.0852" y2="76.5961" gradientUnits="userSpaceOnUse">
<stop stop-color="white" stop-opacity="0.4"/>
<stop offset="1" stop-color="white" stop-opacity="0"/>
</linearGradient>
<linearGradient id="paint3_linear_269_16030" x1="105.666" y1="81.2416" x2="98.3873" y2="107.765" gradientUnits="userSpaceOnUse">
<stop stop-color="#648FFF" stop-opacity="0"/>
<stop offset="0.5" stop-color="#64E3FF"/>
<stop offset="1" stop-color="#64A2FF" stop-opacity="0"/>
</linearGradient>
<linearGradient id="paint4_linear_269_16030" x1="2.03828" y1="81.2416" x2="9.31726" y2="107.765" gradientUnits="userSpaceOnUse">
<stop stop-color="#648FFF" stop-opacity="0"/>
<stop offset="0.5" stop-color="#64E3FF"/>
<stop offset="1" stop-color="#64A2FF" stop-opacity="0"/>
</linearGradient>
<linearGradient id="paint5_linear_269_16030" x1="81.1628" y1="12.4543" x2="80.6054" y2="22.1786" gradientUnits="userSpaceOnUse">
<stop stop-color="#8FBCFF"/>
<stop offset="1" stop-color="white"/>
</linearGradient>
<linearGradient id="paint6_linear_269_16030" x1="81.2486" y1="12.1688" x2="80.5369" y2="22.2008" gradientUnits="userSpaceOnUse">
<stop stop-color="white"/>
<stop offset="1" stop-color="#67A4FF" stop-opacity="0.29"/>
</linearGradient>
<linearGradient id="paint7_linear_269_16030" x1="56.008" y1="12.2112" x2="52.7606" y2="67.7664" gradientUnits="userSpaceOnUse">
<stop stop-color="#BDD7FF"/>
<stop offset="0.239811" stop-color="#D8E8FF"/>
<stop offset="0.770214" stop-color="#EBF3FF"/>
<stop offset="1" stop-color="#A0C6FF"/>
</linearGradient>
<linearGradient id="paint8_linear_269_16030" x1="56.5453" y1="10.4162" x2="52.4671" y2="67.8989" gradientUnits="userSpaceOnUse">
<stop stop-color="white"/>
<stop offset="0.697917" stop-color="#BAD6FF"/>
<stop offset="1" stop-color="#F1F7FF"/>
</linearGradient>
<linearGradient id="paint9_linear_269_16030" x1="46.8644" y1="62.8912" x2="46.2973" y2="70.8848" gradientUnits="userSpaceOnUse">
<stop stop-color="#A3C8FF"/>
<stop offset="1" stop-color="#4981D5"/>
</linearGradient>
<linearGradient id="paint10_linear_269_16030" x1="47.0088" y1="25.7297" x2="40.5994" y2="20.3234" gradientUnits="userSpaceOnUse">
<stop stop-color="#339DFF"/>
<stop offset="1" stop-color="#8CC8FF"/>
</linearGradient>
<linearGradient id="paint11_linear_269_16030" x1="43.2373" y1="18.4154" x2="43.2373" y2="25.7297" gradientUnits="userSpaceOnUse">
<stop stop-color="white"/>
<stop offset="1" stop-color="white" stop-opacity="0"/>
</linearGradient>
<linearGradient id="paint12_linear_269_16030" x1="60.4246" y1="21.7599" x2="60.1658" y2="25.4079" gradientUnits="userSpaceOnUse">
<stop stop-color="white"/>
<stop offset="1" stop-color="white" stop-opacity="0.46"/>
</linearGradient>
<linearGradient id="paint13_linear_269_16030" x1="59.5837" y1="33.6158" x2="59.3249" y2="37.2638" gradientUnits="userSpaceOnUse">
<stop stop-color="white"/>
<stop offset="1" stop-color="white" stop-opacity="0.46"/>
</linearGradient>
<linearGradient id="paint14_linear_269_16030" x1="57.7654" y1="46.319" x2="57.5066" y2="49.967" gradientUnits="userSpaceOnUse">
<stop stop-color="white"/>
<stop offset="1" stop-color="white" stop-opacity="0.46"/>
</linearGradient>
<linearGradient id="paint15_linear_269_16030" x1="40.1576" y1="37.7372" x2="38.327" y2="30.5954" gradientUnits="userSpaceOnUse">
<stop stop-color="#FFC633"/>
<stop offset="1" stop-color="#FFE49D"/>
</linearGradient>
<linearGradient id="paint16_linear_269_16030" x1="42.3852" y1="30.5625" x2="41.8676" y2="37.8585" gradientUnits="userSpaceOnUse">
<stop stop-color="white"/>
<stop offset="1" stop-color="white" stop-opacity="0"/>
</linearGradient>
<linearGradient id="paint17_linear_269_16030" x1="40.5678" y1="43.2657" x2="40.0502" y2="50.5617" gradientUnits="userSpaceOnUse">
<stop stop-color="#FFDF8D"/>
<stop offset="1" stop-color="#FF9533"/>
</linearGradient>
<linearGradient id="paint18_linear_269_16030" x1="40.5678" y1="43.2657" x2="40.0502" y2="50.5617" gradientUnits="userSpaceOnUse">
<stop stop-color="white"/>
<stop offset="1" stop-color="white" stop-opacity="0"/>
</linearGradient>
<linearGradient id="paint19_linear_269_16030" x1="17.0416" y1="30.9165" x2="22.2181" y2="44.556" gradientUnits="userSpaceOnUse">
<stop stop-color="#0085FF"/>
<stop offset="1" stop-color="#55E0F3" stop-opacity="0.43"/>
</linearGradient>
<linearGradient id="paint20_linear_269_16030" x1="15.3031" y1="41.5782" x2="30.1187" y2="41.9712" gradientUnits="userSpaceOnUse">
<stop stop-color="white" stop-opacity="0.72"/>
<stop offset="1" stop-color="white" stop-opacity="0.38"/>
</linearGradient>
<linearGradient id="paint21_linear_269_16030" x1="87.0587" y1="34.8697" x2="91.9041" y2="44.9067" gradientUnits="userSpaceOnUse">
<stop stop-color="#6D50E0" stop-opacity="0.78"/>
<stop offset="1" stop-color="#0085FF"/>
</linearGradient>
<linearGradient id="paint22_linear_269_16030" x1="88.4382" y1="52.9721" x2="90.7239" y2="28.7436" gradientUnits="userSpaceOnUse">
<stop stop-color="white" stop-opacity="0.52"/>
<stop offset="1" stop-color="white" stop-opacity="0.22"/>
</linearGradient>
<linearGradient id="paint23_linear_269_16030" x1="54.8365" y1="29.1536" x2="54.5339" y2="59.8285" gradientUnits="userSpaceOnUse">
<stop stop-color="white" stop-opacity="0"/>
<stop offset="1" stop-color="#67A4FF"/>
</linearGradient>
<linearGradient id="paint24_linear_269_16030" x1="73.8128" y1="58.0811" x2="89.1278" y2="57.9148" gradientUnits="userSpaceOnUse">
<stop stop-color="#50D8E0" stop-opacity="0.79"/>
<stop offset="1" stop-color="#0085FF"/>
</linearGradient>
<linearGradient id="paint25_linear_269_16030" x1="74.7238" y1="58.0007" x2="92.4267" y2="56.8915" gradientUnits="userSpaceOnUse">
<stop stop-color="white"/>
<stop offset="1" stop-color="white" stop-opacity="0"/>
</linearGradient>
<radialGradient id="paint26_radial_269_16030" cx="0" cy="0" r="1" gradientUnits="userSpaceOnUse" gradientTransform="translate(45.695 73.9905) rotate(45) scale(0.969746 1.30578)">
<stop stop-color="#C7E4FF"/>
<stop offset="0.291667" stop-color="#64B5FF"/>
<stop offset="1" stop-color="#4B68FF"/>
</radialGradient>
<radialGradient id="paint27_radial_269_16030" cx="0" cy="0" r="1" gradientUnits="userSpaceOnUse" gradientTransform="translate(100.301 22.9578) rotate(44.6489) scale(3.60959 4.85999)">
<stop stop-color="#C7E4FF"/>
<stop offset="0.291667" stop-color="#64B5FF"/>
<stop offset="1" stop-color="#4B68FF"/>
</radialGradient>
<radialGradient id="paint28_radial_269_16030" cx="0" cy="0" r="1" gradientUnits="userSpaceOnUse" gradientTransform="translate(58.9523 79.3238) rotate(45) scale(0.969746 1.30578)">
<stop stop-color="#C7E4FF"/>
<stop offset="0.291667" stop-color="#64B5FF"/>
<stop offset="1" stop-color="#4B68FF"/>
</radialGradient>
<radialGradient id="paint29_radial_269_16030" cx="0" cy="0" r="1" gradientUnits="userSpaceOnUse" gradientTransform="translate(28.0081 45.1319) rotate(44.6489) scale(1.80479 2.42999)">
<stop stop-color="#C7E4FF"/>
<stop offset="0.291667" stop-color="#64B5FF"/>
<stop offset="1" stop-color="#4B68FF"/>
</radialGradient>
<radialGradient id="paint30_radial_269_16030" cx="0" cy="0" r="1" gradientUnits="userSpaceOnUse" gradientTransform="translate(13.2625 10.6022) rotate(44.6489) scale(4.21118 5.66999)">
<stop stop-color="#C7E4FF"/>
<stop offset="0.291667" stop-color="#64B5FF"/>
<stop offset="1" stop-color="#4B68FF"/>
</radialGradient>
<linearGradient id="paint31_linear_269_16030" x1="54.9609" y1="52.6902" x2="74.0234" y2="50.9084" gradientUnits="userSpaceOnUse">
<stop stop-color="#778BBD"/>
<stop offset="1" stop-color="#3F4E76"/>
</linearGradient>
<linearGradient id="paint32_linear_269_16030" x1="55.9709" y1="46.7561" x2="75.2925" y2="44.8595" gradientUnits="userSpaceOnUse">
<stop stop-color="#778BBD"/>
<stop offset="1" stop-color="#3F4E76"/>
</linearGradient>
<linearGradient id="paint33_linear_269_16030" x1="62.0765" y1="52.2" x2="72.1966" y2="62.2131" gradientUnits="userSpaceOnUse">
<stop stop-color="white"/>
<stop offset="1" stop-color="white" stop-opacity="0.67"/>
</linearGradient>
<linearGradient id="paint34_linear_269_16030" x1="77.6267" y1="73.5155" x2="80.3884" y2="71.2526" gradientUnits="userSpaceOnUse">
<stop stop-color="#3A4A73"/>
<stop offset="0.354167" stop-color="#92A0C6"/>
<stop offset="1" stop-color="#3F4E76"/>
</linearGradient>
</defs>
</svg>
