<svg width="108" height="96" viewBox="0 0 108 96" fill="none" xmlns="http://www.w3.org/2000/svg">
<g filter="url(#filter0_d_113_164126)">
<path d="M55.0668 44.8C48.587 44.8 43.3335 39.264 43.3335 32.4373C43.3335 27.8827 47.2443 21.3376 55.0668 12.8C62.8894 21.3387 66.8002 27.8837 66.8002 32.4373C66.8002 39.264 61.5467 44.8 55.0668 44.8ZM46.4678 34.1461C46.8554 35.8436 47.6402 37.4139 48.7518 38.7159C49.8635 40.0178 51.267 41.0107 52.8365 41.6053C52.9649 41.6533 53.1011 41.6742 53.2372 41.6668C53.3734 41.6595 53.5068 41.6241 53.6298 41.5626C53.7528 41.5011 53.8629 41.4148 53.9539 41.3086C54.0449 41.2025 54.1148 41.0785 54.1598 40.944C54.2524 40.6721 54.2384 40.3729 54.1209 40.1117C54.0033 39.8506 53.7917 39.6486 53.5323 39.5499C52.288 39.078 51.1752 38.2906 50.2937 37.2583C49.4122 36.226 48.7897 34.9811 48.4819 33.6352C48.4497 33.4969 48.3918 33.3667 48.3115 33.2518C48.2312 33.1369 48.13 33.0397 48.0138 32.9657C47.8975 32.8917 47.7685 32.8424 47.634 32.8206C47.4995 32.7987 47.3622 32.8048 47.23 32.8384C47.0977 32.872 46.9731 32.9325 46.8633 33.0165C46.7534 33.1005 46.6604 33.2062 46.5896 33.3278C46.5189 33.4493 46.4717 33.5842 46.4508 33.7248C46.4299 33.8654 46.4357 34.0089 46.4678 34.1472V34.1461Z" fill="url(#paint0_linear_113_164126)"/>
<path d="M45.9484 34.268L45.9486 34.268C46.3552 36.0468 47.1784 37.6944 48.3462 39.0622C49.5149 40.4309 50.9925 41.477 52.6475 42.1041L52.65 42.105C52.8467 42.1784 53.0561 42.2107 53.2659 42.1994C53.4757 42.1881 53.6804 42.1335 53.8682 42.0397C54.0559 41.9458 54.2225 41.8149 54.3589 41.6556C54.4947 41.4972 54.5982 41.3137 54.6646 41.1159C54.8007 40.7165 54.7804 40.2776 54.6072 39.8928C54.4337 39.5075 54.1181 39.2021 53.722 39.0514L53.7214 39.0512C52.5627 38.6118 51.5238 37.8776 50.6993 36.912C49.8747 35.9463 49.2907 34.7797 49.0018 33.5163L49.0013 33.5144C48.954 33.3107 48.8684 33.1175 48.7486 32.9462C48.6287 32.7748 48.4767 32.6282 48.3001 32.5158C48.1236 32.4034 47.9263 32.3277 47.7195 32.2941C47.5127 32.2605 47.3016 32.2699 47.0986 32.3215C46.8956 32.3731 46.7057 32.4657 46.5394 32.5927C46.3732 32.7198 46.234 32.8786 46.1287 33.0594C46.0235 33.2401 45.954 33.4396 45.9232 33.6464C45.8925 33.8532 45.901 34.0643 45.9484 34.268ZM55.0668 44.2667C48.9075 44.2667 43.8668 38.9961 43.8668 32.4373C43.8668 30.3011 44.7889 27.6254 46.7245 24.3858C48.5891 21.2652 51.3659 17.6678 55.0668 13.5914C58.7677 17.6684 61.5445 21.2659 63.4091 24.3866C65.3448 27.6262 66.2668 30.3016 66.2668 32.4373C66.2668 38.9961 61.2262 44.2667 55.0668 44.2667Z" stroke="url(#paint1_linear_113_164126)" stroke-width="1.06667"/>
</g>
<path fill-rule="evenodd" clip-rule="evenodd" d="M105.962 79.1751L54.0001 64.9148L2.03857 79.1751L54.0001 93.4355L105.962 79.1751ZM97.0456 79.1753L53.7443 67.2916L10.443 79.1753L53.7443 91.0589L97.0456 79.1753Z" fill="url(#paint2_linear_113_164126)"/>
<g opacity="0.6" filter="url(#filter1_df_113_164126)">
<path d="M54.5924 74.665L76.5184 80.722L54.5924 86.779L32.6665 80.722L54.5924 74.665Z" fill="url(#paint3_linear_113_164126)"/>
</g>
<path fill-rule="evenodd" clip-rule="evenodd" d="M53.5646 64.9555L53.5607 64.9544L53.8494 64.8752L53.8533 64.8763L53.8572 64.8752L54.1458 64.9544L54.142 64.9555L65.6077 68.1021L65.819 68.0442L66.1076 68.1234L65.8964 68.1814L77.067 71.247L77.1905 71.2131L77.4792 71.2924L77.3557 71.3263L105.811 79.1355L105.668 79.1748L105.812 79.2146L54.1419 93.395L54.1442 93.3957L53.8556 93.4749L53.8533 93.4743L53.851 93.4749L53.5623 93.3957L53.5646 93.395L1.89404 79.2146L2.03883 79.1748L1.89564 79.1355L30.3509 71.3263L30.2274 71.2924L30.5161 71.2131L30.6396 71.247L41.8096 68.1815L41.5977 68.1234L41.8864 68.0442L42.0983 68.1023L53.5646 64.9555ZM53.8533 65.0347L42.3869 68.1815L53.8527 71.3282L65.319 68.1814L53.8533 65.0347ZM65.6077 68.2606L54.1414 71.4074L65.312 74.4731L76.7783 71.3263L65.6077 68.2606ZM77.067 71.4055L65.6007 74.5523L79.612 78.3976L91.0784 75.2508L77.067 71.4055ZM91.367 75.33L79.9007 78.4768L93.8479 82.3045L93.5593 82.3837L79.612 78.556L68.442 81.6215L82.4533 85.4668L105.378 79.1753L91.367 75.33ZM82.1646 85.546L68.1533 81.7008L54.1414 85.5462L68.1527 89.3915L82.1646 85.546ZM67.864 89.4707L53.8527 85.6254L39.8419 89.4705L53.8533 93.3158L67.864 89.4707ZM39.5533 89.3913L53.564 85.5462L39.5527 81.7009L25.5419 85.546L39.5533 89.3913ZM25.2532 85.4668L39.264 81.6217L28.0934 78.556L14.1461 82.3837L13.8574 82.3045L27.8047 78.4768L16.339 75.3301L2.3282 79.1753L25.2532 85.4668ZM16.6276 75.2509L28.0934 78.3976L42.1053 74.5521L30.6396 71.4055L16.6276 75.2509ZM30.9282 71.3263L42.394 74.4729L53.564 71.4074L42.0983 68.2607L30.9282 71.3263ZM53.8527 71.4866L42.6827 74.5521L53.8533 77.6178L65.0233 74.5523L53.8527 71.4866ZM65.312 74.6315L54.142 77.697L68.1533 81.5423L79.3233 78.4768L65.312 74.6315ZM67.8646 81.6215L53.8533 77.7763L39.8414 81.6217L53.8527 85.467L67.8646 81.6215ZM39.5527 81.5425L53.5646 77.697L42.394 74.6314L28.3821 78.4768L39.5527 81.5425Z" fill="url(#paint4_linear_113_164126)"/>
<path fill-rule="evenodd" clip-rule="evenodd" d="M105.811 79.2145L53.8491 93.4749L53.5604 93.3956L105.522 79.1353L105.811 79.2145Z" fill="url(#paint5_linear_113_164126)"/>
<path fill-rule="evenodd" clip-rule="evenodd" d="M1.89394 79.2145L53.8555 93.4749L54.1441 93.3956L2.18262 79.1353L1.89394 79.2145Z" fill="url(#paint6_linear_113_164126)"/>
<path d="M95.4828 70.1592L54.0894 58.7991V61.8973L95.4828 73.2574V70.1592Z" fill="url(#paint7_linear_113_164126)"/>
<path d="M54.0893 58.7991L12.6958 70.1592V73.2574L54.0893 61.8973V58.7991Z" fill="url(#paint8_linear_113_164126)"/>
<path d="M54.0894 81.5196L95.4828 70.1596V77.2056L54.0894 88.5657V81.5196Z" fill="url(#paint9_linear_113_164126)"/>
<path d="M12.6958 70.1596L54.0893 81.5196V88.5657L12.6958 77.2056V70.1596Z" fill="url(#paint10_linear_113_164126)"/>
<path d="M14.711 70.1592L54.0893 59.3522L93.4676 70.1592L54.0893 80.9662L14.711 70.1592Z" fill="#2F335A" stroke="url(#paint11_linear_113_164126)" stroke-width="1.06667"/>
<g filter="url(#filter2_di_113_164126)">
<path d="M53.9741 64.9297L74.0585 70.1935L53.9741 75.4573L33.8896 70.1935L53.9741 64.9297Z" fill="url(#paint12_linear_113_164126)"/>
</g>
<g filter="url(#filter3_d_113_164126)">
<path d="M39.7792 80.0424L22.0015 75.2188V77.3639L39.7792 82.1876V80.0424Z" fill="url(#paint13_linear_113_164126)"/>
</g>
<path opacity="0.3" d="M39.7792 80.0424L22.0015 75.2188L6.00146 80.2663L6.00146 91.2731L39.7792 82.1876V80.0424Z" fill="url(#paint14_linear_113_164126)"/>
<g filter="url(#filter4_d_113_164126)">
<path d="M66.4459 80.0424L84.2236 75.2188V77.3639L66.4459 82.1875V80.0424Z" fill="url(#paint15_linear_113_164126)"/>
</g>
<path opacity="0.3" d="M66.4459 80.0424L84.2236 75.2188L100.224 80.2662L100.224 91.273L66.4459 82.1875V80.0424Z" fill="url(#paint16_linear_113_164126)"/>
<g filter="url(#filter5_d_113_164126)">
<ellipse cx="73.2419" cy="12.8918" rx="1.36005" ry="1.15844" fill="url(#paint17_linear_113_164126)"/>
</g>
<g filter="url(#filter6_d_113_164126)">
<ellipse cx="64.7132" cy="55.5223" rx="0.680026" ry="0.579221" fill="white"/>
</g>
<g filter="url(#filter7_d_113_164126)">
<ellipse cx="78.8967" cy="45.6093" rx="1.36005" ry="1.15844" fill="url(#paint18_linear_113_164126)"/>
</g>
<g filter="url(#filter8_d_113_164126)">
<ellipse cx="24.0671" cy="35.0179" rx="1.36005" ry="1.15844" fill="url(#paint19_linear_113_164126)"/>
</g>
<g filter="url(#filter9_d_113_164126)">
<ellipse cx="56.0282" cy="63.6313" rx="0.680026" ry="0.579221" fill="white"/>
</g>
<g filter="url(#filter10_d_113_164126)">
<ellipse cx="42.7772" cy="53.9504" rx="0.680026" ry="0.579221" fill="white"/>
</g>
<rect y="0.0564597" width="53.6695" height="53.6695" transform="matrix(0.964343 0.264655 -0.964343 0.264655 54.0544 39.5197)" stroke="url(#paint20_linear_113_164126)" stroke-width="0.213333" stroke-dasharray="0.43 0.43"/>
<path d="M89.5554 42.6667L81.38 68.7507L53.9999 76.8L26.6198 68.7507L18.4443 42.6667H89.5554Z" fill="url(#paint21_linear_113_164126)"/>
<path opacity="0.5" d="M83.52 14.1583L71.6682 69.6076L53.9875 74.5038L36.3068 69.6076L24.4551 14.1583H83.52Z" fill="url(#paint22_linear_113_164126)"/>
<defs>
<filter id="filter0_d_113_164126" x="32.6668" y="2.13332" width="44.8001" height="53.3333" filterUnits="userSpaceOnUse" color-interpolation-filters="sRGB">
<feFlood flood-opacity="0" result="BackgroundImageFix"/>
<feColorMatrix in="SourceAlpha" type="matrix" values="0 0 0 0 0 0 0 0 0 0 0 0 0 0 0 0 0 0 127 0" result="hardAlpha"/>
<feOffset/>
<feGaussianBlur stdDeviation="5.33333"/>
<feComposite in2="hardAlpha" operator="out"/>
<feColorMatrix type="matrix" values="0 0 0 0 0.160784 0 0 0 0 0.792627 0 0 0 0 0.992157 0 0 0 0.4 0"/>
<feBlend mode="normal" in2="BackgroundImageFix" result="effect1_dropShadow_113_164126"/>
<feBlend mode="normal" in="SourceGraphic" in2="effect1_dropShadow_113_164126" result="shape"/>
</filter>
<filter id="filter1_df_113_164126" x="28.3998" y="70.3984" width="52.3854" height="20.6473" filterUnits="userSpaceOnUse" color-interpolation-filters="sRGB">
<feFlood flood-opacity="0" result="BackgroundImageFix"/>
<feColorMatrix in="SourceAlpha" type="matrix" values="0 0 0 0 0 0 0 0 0 0 0 0 0 0 0 0 0 0 127 0" result="hardAlpha"/>
<feOffset/>
<feGaussianBlur stdDeviation="2.13333"/>
<feComposite in2="hardAlpha" operator="out"/>
<feColorMatrix type="matrix" values="0 0 0 0 0 0 0 0 0 0.28 0 0 0 0 1 0 0 0 1 0"/>
<feBlend mode="normal" in2="BackgroundImageFix" result="effect1_dropShadow_113_164126"/>
<feBlend mode="normal" in="SourceGraphic" in2="effect1_dropShadow_113_164126" result="shape"/>
<feGaussianBlur stdDeviation="2.13333" result="effect2_foregroundBlur_113_164126"/>
</filter>
<filter id="filter2_di_113_164126" x="29.623" y="60.6631" width="48.7023" height="19.0609" filterUnits="userSpaceOnUse" color-interpolation-filters="sRGB">
<feFlood flood-opacity="0" result="BackgroundImageFix"/>
<feColorMatrix in="SourceAlpha" type="matrix" values="0 0 0 0 0 0 0 0 0 0 0 0 0 0 0 0 0 0 127 0" result="hardAlpha"/>
<feOffset/>
<feGaussianBlur stdDeviation="2.13333"/>
<feComposite in2="hardAlpha" operator="out"/>
<feColorMatrix type="matrix" values="0 0 0 0 0.0375 0 0 0 0 0.538 0 0 0 0 1 0 0 0 1 0"/>
<feBlend mode="normal" in2="BackgroundImageFix" result="effect1_dropShadow_113_164126"/>
<feBlend mode="normal" in="SourceGraphic" in2="effect1_dropShadow_113_164126" result="shape"/>
<feColorMatrix in="SourceAlpha" type="matrix" values="0 0 0 0 0 0 0 0 0 0 0 0 0 0 0 0 0 0 127 0" result="hardAlpha"/>
<feOffset dy="2.13333"/>
<feComposite in2="hardAlpha" operator="arithmetic" k2="-1" k3="1"/>
<feColorMatrix type="matrix" values="0 0 0 0 0.123333 0 0 0 0 0.17619 0 0 0 0 0.308333 0 0 0 1 0"/>
<feBlend mode="normal" in2="shape" result="effect2_innerShadow_113_164126"/>
</filter>
<filter id="filter3_d_113_164126" x="17.7348" y="70.9521" width="26.3112" height="15.5021" filterUnits="userSpaceOnUse" color-interpolation-filters="sRGB">
<feFlood flood-opacity="0" result="BackgroundImageFix"/>
<feColorMatrix in="SourceAlpha" type="matrix" values="0 0 0 0 0 0 0 0 0 0 0 0 0 0 0 0 0 0 127 0" result="hardAlpha"/>
<feOffset/>
<feGaussianBlur stdDeviation="2.13333"/>
<feComposite in2="hardAlpha" operator="out"/>
<feColorMatrix type="matrix" values="0 0 0 0 0 0 0 0 0 0.88 0 0 0 0 1 0 0 0 1 0"/>
<feBlend mode="normal" in2="BackgroundImageFix" result="effect1_dropShadow_113_164126"/>
<feBlend mode="normal" in="SourceGraphic" in2="effect1_dropShadow_113_164126" result="shape"/>
</filter>
<filter id="filter4_d_113_164126" x="62.1791" y="70.9521" width="26.3112" height="15.5021" filterUnits="userSpaceOnUse" color-interpolation-filters="sRGB">
<feFlood flood-opacity="0" result="BackgroundImageFix"/>
<feColorMatrix in="SourceAlpha" type="matrix" values="0 0 0 0 0 0 0 0 0 0 0 0 0 0 0 0 0 0 127 0" result="hardAlpha"/>
<feOffset/>
<feGaussianBlur stdDeviation="2.13333"/>
<feComposite in2="hardAlpha" operator="out"/>
<feColorMatrix type="matrix" values="0 0 0 0 0 0 0 0 0 0.88 0 0 0 0 1 0 0 0 1 0"/>
<feBlend mode="normal" in2="BackgroundImageFix" result="effect1_dropShadow_113_164126"/>
<feBlend mode="normal" in="SourceGraphic" in2="effect1_dropShadow_113_164126" result="shape"/>
</filter>
<filter id="filter5_d_113_164126" x="67.6152" y="7.46667" width="11.2535" height="10.8502" filterUnits="userSpaceOnUse" color-interpolation-filters="sRGB">
<feFlood flood-opacity="0" result="BackgroundImageFix"/>
<feColorMatrix in="SourceAlpha" type="matrix" values="0 0 0 0 0 0 0 0 0 0 0 0 0 0 0 0 0 0 127 0" result="hardAlpha"/>
<feOffset/>
<feGaussianBlur stdDeviation="2.13333"/>
<feComposite in2="hardAlpha" operator="out"/>
<feColorMatrix type="matrix" values="0 0 0 0 0.623529 0 0 0 0 0.864471 0 0 0 0 1 0 0 0 0.71 0"/>
<feBlend mode="normal" in2="BackgroundImageFix" result="effect1_dropShadow_113_164126"/>
<feBlend mode="normal" in="SourceGraphic" in2="effect1_dropShadow_113_164126" result="shape"/>
</filter>
<filter id="filter6_d_113_164126" x="59.7665" y="50.6764" width="9.8932" height="9.69178" filterUnits="userSpaceOnUse" color-interpolation-filters="sRGB">
<feFlood flood-opacity="0" result="BackgroundImageFix"/>
<feColorMatrix in="SourceAlpha" type="matrix" values="0 0 0 0 0 0 0 0 0 0 0 0 0 0 0 0 0 0 127 0" result="hardAlpha"/>
<feOffset/>
<feGaussianBlur stdDeviation="2.13333"/>
<feComposite in2="hardAlpha" operator="out"/>
<feColorMatrix type="matrix" values="0 0 0 0 0 0 0 0 0 0.28 0 0 0 0 1 0 0 0 1 0"/>
<feBlend mode="normal" in2="BackgroundImageFix" result="effect1_dropShadow_113_164126"/>
<feBlend mode="normal" in="SourceGraphic" in2="effect1_dropShadow_113_164126" result="shape"/>
</filter>
<filter id="filter7_d_113_164126" x="73.27" y="40.1842" width="11.2535" height="10.8502" filterUnits="userSpaceOnUse" color-interpolation-filters="sRGB">
<feFlood flood-opacity="0" result="BackgroundImageFix"/>
<feColorMatrix in="SourceAlpha" type="matrix" values="0 0 0 0 0 0 0 0 0 0 0 0 0 0 0 0 0 0 127 0" result="hardAlpha"/>
<feOffset/>
<feGaussianBlur stdDeviation="2.13333"/>
<feComposite in2="hardAlpha" operator="out"/>
<feColorMatrix type="matrix" values="0 0 0 0 0.623529 0 0 0 0 0.864471 0 0 0 0 1 0 0 0 0.71 0"/>
<feBlend mode="normal" in2="BackgroundImageFix" result="effect1_dropShadow_113_164126"/>
<feBlend mode="normal" in="SourceGraphic" in2="effect1_dropShadow_113_164126" result="shape"/>
</filter>
<filter id="filter8_d_113_164126" x="18.4404" y="29.5928" width="11.2535" height="10.8502" filterUnits="userSpaceOnUse" color-interpolation-filters="sRGB">
<feFlood flood-opacity="0" result="BackgroundImageFix"/>
<feColorMatrix in="SourceAlpha" type="matrix" values="0 0 0 0 0 0 0 0 0 0 0 0 0 0 0 0 0 0 127 0" result="hardAlpha"/>
<feOffset/>
<feGaussianBlur stdDeviation="2.13333"/>
<feComposite in2="hardAlpha" operator="out"/>
<feColorMatrix type="matrix" values="0 0 0 0 0.623529 0 0 0 0 0.864471 0 0 0 0 1 0 0 0 0.71 0"/>
<feBlend mode="normal" in2="BackgroundImageFix" result="effect1_dropShadow_113_164126"/>
<feBlend mode="normal" in="SourceGraphic" in2="effect1_dropShadow_113_164126" result="shape"/>
</filter>
<filter id="filter9_d_113_164126" x="51.0815" y="58.7854" width="9.8932" height="9.69178" filterUnits="userSpaceOnUse" color-interpolation-filters="sRGB">
<feFlood flood-opacity="0" result="BackgroundImageFix"/>
<feColorMatrix in="SourceAlpha" type="matrix" values="0 0 0 0 0 0 0 0 0 0 0 0 0 0 0 0 0 0 127 0" result="hardAlpha"/>
<feOffset/>
<feGaussianBlur stdDeviation="2.13333"/>
<feComposite in2="hardAlpha" operator="out"/>
<feColorMatrix type="matrix" values="0 0 0 0 0 0 0 0 0 0.28 0 0 0 0 1 0 0 0 1 0"/>
<feBlend mode="normal" in2="BackgroundImageFix" result="effect1_dropShadow_113_164126"/>
<feBlend mode="normal" in="SourceGraphic" in2="effect1_dropShadow_113_164126" result="shape"/>
</filter>
<filter id="filter10_d_113_164126" x="37.8305" y="49.1045" width="9.8932" height="9.69178" filterUnits="userSpaceOnUse" color-interpolation-filters="sRGB">
<feFlood flood-opacity="0" result="BackgroundImageFix"/>
<feColorMatrix in="SourceAlpha" type="matrix" values="0 0 0 0 0 0 0 0 0 0 0 0 0 0 0 0 0 0 127 0" result="hardAlpha"/>
<feOffset/>
<feGaussianBlur stdDeviation="2.13333"/>
<feComposite in2="hardAlpha" operator="out"/>
<feColorMatrix type="matrix" values="0 0 0 0 0 0 0 0 0 0.28 0 0 0 0 1 0 0 0 1 0"/>
<feBlend mode="normal" in2="BackgroundImageFix" result="effect1_dropShadow_113_164126"/>
<feBlend mode="normal" in="SourceGraphic" in2="effect1_dropShadow_113_164126" result="shape"/>
</filter>
<linearGradient id="paint0_linear_113_164126" x1="54.8934" y1="13.7252" x2="55.3979" y2="44.7116" gradientUnits="userSpaceOnUse">
<stop stop-color="#8FEBFF"/>
<stop offset="1" stop-color="white"/>
</linearGradient>
<linearGradient id="paint1_linear_113_164126" x1="55.0668" y1="12.8" x2="55.0668" y2="44.8" gradientUnits="userSpaceOnUse">
<stop stop-color="white"/>
<stop offset="1" stop-color="#88D5ED"/>
</linearGradient>
<linearGradient id="paint2_linear_113_164126" x1="54.0001" y1="64.9148" x2="54.0001" y2="93.4355" gradientUnits="userSpaceOnUse">
<stop stop-color="white" stop-opacity="0.03"/>
<stop offset="1" stop-color="#BBF3FF"/>
</linearGradient>
<linearGradient id="paint3_linear_113_164126" x1="53.4072" y1="75.6745" x2="54.5298" y2="86.7252" gradientUnits="userSpaceOnUse">
<stop stop-color="#64E3FF"/>
<stop offset="1" stop-color="#0075FF"/>
</linearGradient>
<linearGradient id="paint4_linear_113_164126" x1="54.0013" y1="93.4351" x2="54.0856" y2="74.5295" gradientUnits="userSpaceOnUse">
<stop stop-color="white" stop-opacity="0.4"/>
<stop offset="1" stop-color="white" stop-opacity="0"/>
</linearGradient>
<linearGradient id="paint5_linear_113_164126" x1="105.666" y1="79.1749" x2="98.3873" y2="105.698" gradientUnits="userSpaceOnUse">
<stop stop-color="#648FFF" stop-opacity="0"/>
<stop offset="0.5" stop-color="#64FFFF"/>
<stop offset="1" stop-color="#64A2FF" stop-opacity="0"/>
</linearGradient>
<linearGradient id="paint6_linear_113_164126" x1="2.03828" y1="79.1749" x2="9.31726" y2="105.698" gradientUnits="userSpaceOnUse">
<stop stop-color="#648FFF" stop-opacity="0"/>
<stop offset="0.5" stop-color="#64FFFF"/>
<stop offset="1" stop-color="#64A2FF" stop-opacity="0"/>
</linearGradient>
<linearGradient id="paint7_linear_113_164126" x1="95.4828" y1="73.2574" x2="95.4828" y2="58.7991" gradientUnits="userSpaceOnUse">
<stop stop-color="#B3C0DF"/>
<stop offset="1" stop-color="#7D9EC8"/>
</linearGradient>
<linearGradient id="paint8_linear_113_164126" x1="54.0893" y1="73.2574" x2="54.0893" y2="58.7991" gradientUnits="userSpaceOnUse">
<stop stop-color="#B3C0DF"/>
<stop offset="1" stop-color="#7D9EC8"/>
</linearGradient>
<linearGradient id="paint9_linear_113_164126" x1="57.5172" y1="74.1413" x2="90.8343" y2="69.327" gradientUnits="userSpaceOnUse">
<stop stop-color="#273558"/>
<stop offset="1" stop-color="#3F4E76"/>
</linearGradient>
<linearGradient id="paint10_linear_113_164126" x1="16.1237" y1="74.1413" x2="49.4408" y2="69.327" gradientUnits="userSpaceOnUse">
<stop stop-color="#273558"/>
<stop offset="1" stop-color="#3F4E76"/>
</linearGradient>
<linearGradient id="paint11_linear_113_164126" x1="54.0893" y1="58.7991" x2="54.0893" y2="81.5192" gradientUnits="userSpaceOnUse">
<stop stop-color="#9BB9FF" stop-opacity="0"/>
<stop offset="1" stop-color="#94B4FF"/>
</linearGradient>
<linearGradient id="paint12_linear_113_164126" x1="52.8884" y1="65.807" x2="53.8149" y2="75.4203" gradientUnits="userSpaceOnUse">
<stop stop-color="#64E3FF"/>
<stop offset="1" stop-color="#0075FF"/>
</linearGradient>
<linearGradient id="paint13_linear_113_164126" x1="19.6311" y1="82.5092" x2="41.0003" y2="75.8238" gradientUnits="userSpaceOnUse">
<stop stop-color="#00D1FF"/>
<stop offset="0.515625" stop-color="#CEF6FF"/>
<stop offset="1" stop-color="#4BFF93"/>
</linearGradient>
<linearGradient id="paint14_linear_113_164126" x1="33.8533" y1="78.7032" x2="6.59893" y2="78.0076" gradientUnits="userSpaceOnUse">
<stop offset="0.164593" stop-color="white"/>
<stop offset="1" stop-color="white" stop-opacity="0"/>
</linearGradient>
<linearGradient id="paint15_linear_113_164126" x1="86.594" y1="82.5091" x2="65.2248" y2="75.8237" gradientUnits="userSpaceOnUse">
<stop stop-color="#00D1FF"/>
<stop offset="0.515625" stop-color="#CEF6FF"/>
<stop offset="1" stop-color="#4BFF93"/>
</linearGradient>
<linearGradient id="paint16_linear_113_164126" x1="72.3718" y1="78.7031" x2="99.6262" y2="78.0075" gradientUnits="userSpaceOnUse">
<stop offset="0.164593" stop-color="white"/>
<stop offset="1" stop-color="white" stop-opacity="0"/>
</linearGradient>
<linearGradient id="paint17_linear_113_164126" x1="71.8818" y1="14.0502" x2="74.8184" y2="13.6491" gradientUnits="userSpaceOnUse">
<stop stop-color="#C7F5FF"/>
<stop offset="0.291667" stop-color="#A5EFFF"/>
<stop offset="1" stop-color="#96FFF9"/>
</linearGradient>
<linearGradient id="paint18_linear_113_164126" x1="77.5366" y1="46.7678" x2="80.4732" y2="46.3666" gradientUnits="userSpaceOnUse">
<stop stop-color="#C7F5FF"/>
<stop offset="0.291667" stop-color="#A5EFFF"/>
<stop offset="1" stop-color="#96FFF9"/>
</linearGradient>
<linearGradient id="paint19_linear_113_164126" x1="22.707" y1="36.1764" x2="25.6436" y2="35.7753" gradientUnits="userSpaceOnUse">
<stop stop-color="#C7F5FF"/>
<stop offset="0.291667" stop-color="#A5EFFF"/>
<stop offset="1" stop-color="#96FFF9"/>
</linearGradient>
<linearGradient id="paint20_linear_113_164126" x1="34.7331" y1="58.0651" x2="0.603752" y2="25.3741" gradientUnits="userSpaceOnUse">
<stop stop-color="white"/>
<stop offset="1" stop-color="white" stop-opacity="0"/>
</linearGradient>
<linearGradient id="paint21_linear_113_164126" x1="53.9244" y1="77.1666" x2="53.9244" y2="51.991" gradientUnits="userSpaceOnUse">
<stop stop-color="white"/>
<stop offset="1" stop-color="#23BDFF" stop-opacity="0"/>
</linearGradient>
<linearGradient id="paint22_linear_113_164126" x1="53.9441" y1="74.8836" x2="53.9441" y2="41.6" gradientUnits="userSpaceOnUse">
<stop stop-color="white"/>
<stop offset="1" stop-color="#23CAFF" stop-opacity="0"/>
</linearGradient>
</defs>
</svg>
