<svg width="107" height="101" viewBox="0 0 107 101" fill="none" xmlns="http://www.w3.org/2000/svg">
<g filter="url(#filter0_d_119_11099)">
<mask id="path-1-inside-1_119_11099" fill="white">
<path fill-rule="evenodd" clip-rule="evenodd" d="M55.7856 13.8666C55.7856 20.314 55.7856 24.8652 59.1052 28.6578C59.1052 26.3822 59.8429 22.5896 64.6379 21.0726C64.6379 24.3245 65.5912 26.4872 66.4761 28.4947C67.2425 30.2332 67.9575 31.8552 67.9575 33.9674C67.9575 41.9318 61.6871 48 53.9414 48C46.1957 48 39.9253 41.5526 39.9253 33.9674C39.9253 30.9333 41.4007 27.1407 44.3514 25.6237C44.3514 25.6237 45.0891 30.9333 47.671 33.2089C47.7362 32.5386 47.7092 31.6315 47.6777 30.569C47.5305 25.6198 47.2831 17.3012 55.7856 13.8666ZM55.8869 38.62C55.9741 37.3927 56.153 34.8758 53.6748 33.8957C53.6748 34.7977 52.9056 35.6431 52.1105 36.517C51.3189 37.3872 50.5016 38.2855 50.3924 39.2958C50.3924 41.3209 52.143 43.1209 54.1125 43.1209C56.0819 43.1209 57.8325 41.3209 57.8325 39.2958C57.8325 38.3958 57.3949 37.4958 56.7384 37.0458C56.7384 37.0458 56.5196 38.3958 55.8631 39.0708C55.8631 38.9548 55.874 38.8015 55.8869 38.62Z"/>
</mask>
<path fill-rule="evenodd" clip-rule="evenodd" d="M55.7856 13.8666C55.7856 20.314 55.7856 24.8652 59.1052 28.6578C59.1052 26.3822 59.8429 22.5896 64.6379 21.0726C64.6379 24.3245 65.5912 26.4872 66.4761 28.4947C67.2425 30.2332 67.9575 31.8552 67.9575 33.9674C67.9575 41.9318 61.6871 48 53.9414 48C46.1957 48 39.9253 41.5526 39.9253 33.9674C39.9253 30.9333 41.4007 27.1407 44.3514 25.6237C44.3514 25.6237 45.0891 30.9333 47.671 33.2089C47.7362 32.5386 47.7092 31.6315 47.6777 30.569C47.5305 25.6198 47.2831 17.3012 55.7856 13.8666ZM55.8869 38.62C55.9741 37.3927 56.153 34.8758 53.6748 33.8957C53.6748 34.7977 52.9056 35.6431 52.1105 36.517C51.3189 37.3872 50.5016 38.2855 50.3924 39.2958C50.3924 41.3209 52.143 43.1209 54.1125 43.1209C56.0819 43.1209 57.8325 41.3209 57.8325 39.2958C57.8325 38.3958 57.3949 37.4958 56.7384 37.0458C56.7384 37.0458 56.5196 38.3958 55.8631 39.0708C55.8631 38.9548 55.874 38.8015 55.8869 38.62Z" fill="url(#paint0_linear_119_11099)"/>
<path d="M59.1052 28.6578L58.3026 29.3603L60.1719 31.4959V28.6578H59.1052ZM55.7856 13.8666H56.8523V12.2854L55.3861 12.8776L55.7856 13.8666ZM64.6379 21.0726H65.7046V19.6163L64.3161 20.0556L64.6379 21.0726ZM66.4761 28.4947L65.5001 28.9249L65.5001 28.9249L66.4761 28.4947ZM44.3514 25.6237L45.4079 25.4769L45.201 23.9875L43.8637 24.675L44.3514 25.6237ZM47.671 33.2089L46.9658 34.0091L48.5308 35.3884L48.7327 33.3121L47.671 33.2089ZM47.6777 30.569L46.6115 30.6007L46.6115 30.6007L47.6777 30.569ZM53.6748 33.8957L54.0671 32.9038L52.6081 32.3268V33.8957H53.6748ZM55.8869 38.62L56.9509 38.6956L56.9509 38.6956L55.8869 38.62ZM52.1105 36.517L52.8995 37.2349L52.8995 37.2349L52.1105 36.517ZM50.3924 39.2958L49.3319 39.1812L49.3257 39.2383V39.2958H50.3924ZM56.7384 37.0458L57.3415 36.166L55.9545 35.2152L55.6855 36.8751L56.7384 37.0458ZM55.8631 39.0708H54.7964V41.6975L56.6278 39.8145L55.8631 39.0708ZM59.9079 27.9552C56.8993 24.518 56.8523 20.4142 56.8523 13.8666H54.719C54.719 20.2138 54.6719 25.2123 58.3026 29.3603L59.9079 27.9552ZM64.3161 20.0556C61.6637 20.8948 60.0582 22.3984 59.1392 24.0659C58.2373 25.7024 58.0386 27.4181 58.0386 28.6578H60.1719C60.1719 27.6219 60.3419 26.3035 61.0076 25.0956C61.6563 23.9186 62.8171 22.7674 64.9596 22.0895L64.3161 20.0556ZM67.4522 28.0644C66.5746 26.0736 65.7046 24.0861 65.7046 21.0726H63.5712C63.5712 24.5629 64.6078 26.9008 65.5001 28.9249L67.4522 28.0644ZM69.0242 33.9674C69.0242 31.6022 68.2121 29.7884 67.4522 28.0644L65.5001 28.9249C66.2728 30.6779 66.8908 32.1082 66.8908 33.9674H69.0242ZM53.9414 49.0666C62.267 49.0666 69.0242 42.5302 69.0242 33.9674H66.8908C66.8908 41.3335 61.1073 46.9333 53.9414 46.9333V49.0666ZM38.8586 33.9674C38.8586 42.1321 45.597 49.0666 53.9414 49.0666V46.9333C46.7943 46.9333 40.992 40.973 40.992 33.9674H38.8586ZM43.8637 24.675C42.1299 25.5664 40.8814 27.0969 40.0726 28.7602C39.2633 30.4243 38.8586 32.2907 38.8586 33.9674H40.992C40.992 32.61 41.3249 31.063 41.9911 29.6931C42.6577 28.3223 43.6222 27.198 44.8391 26.5723L43.8637 24.675ZM48.3763 32.4086C47.315 31.4732 46.5558 29.8169 46.0605 28.2428C45.8204 27.4798 45.6561 26.7816 45.5519 26.2743C45.5 26.0214 45.4634 25.8176 45.44 25.679C45.4283 25.6098 45.42 25.557 45.4147 25.5226C45.4121 25.5054 45.4103 25.4928 45.4091 25.4851C45.4086 25.4813 45.4082 25.4786 45.408 25.4773C45.4079 25.4766 45.4079 25.4762 45.4078 25.4761C45.4078 25.4761 45.4078 25.4761 45.4079 25.4763C45.4079 25.4763 45.4079 25.4765 45.4079 25.4765C45.4079 25.4767 45.4079 25.4769 44.3514 25.6237C43.2949 25.7705 43.2949 25.7707 43.295 25.771C43.295 25.7711 43.295 25.7713 43.2951 25.7716C43.2951 25.772 43.2952 25.7726 43.2953 25.7732C43.2955 25.7744 43.2957 25.7759 43.2959 25.7778C43.2965 25.7816 43.2972 25.7866 43.2981 25.7928C43.2999 25.8054 43.3025 25.8229 43.3059 25.8451C43.3127 25.8896 43.3228 25.9531 43.3363 26.0335C43.3634 26.1942 43.4046 26.423 43.4622 26.7034C43.577 27.2628 43.7584 28.0342 44.0255 28.8831C44.5446 30.5327 45.4452 32.6689 46.9658 34.0091L48.3763 32.4086ZM46.6115 30.6007C46.6439 31.6915 46.6665 32.5187 46.6094 33.1056L48.7327 33.3121C48.806 32.5585 48.7746 31.5714 48.7438 30.5373L46.6115 30.6007ZM55.3861 12.8776C50.7997 14.7303 48.535 17.9413 47.4704 21.3301C46.4259 24.6547 46.5385 28.148 46.6115 30.6007L48.7438 30.5373C48.6696 28.0408 48.5849 24.9003 49.5056 21.9695C50.4061 19.1032 52.2691 16.4376 56.1851 14.8557L55.3861 12.8776ZM53.2825 34.8876C54.1621 35.2355 54.5364 35.8139 54.7159 36.4535C54.9132 37.1559 54.8677 37.9148 54.8229 38.5444L56.9509 38.6956C56.9933 38.0979 57.0809 36.9847 56.7698 35.8768C56.4411 34.706 55.6657 33.536 54.0671 32.9038L53.2825 34.8876ZM52.8995 37.2349C53.2838 36.8124 53.7321 36.3229 54.0757 35.8125C54.4201 35.3008 54.7415 34.6521 54.7415 33.8957H52.6081C52.6081 34.0412 52.5449 34.2662 52.3059 34.6213C52.0661 34.9775 51.7323 35.3477 51.3215 35.7992L52.8995 37.2349ZM51.4529 39.4104C51.4808 39.1525 51.607 38.8461 51.8737 38.4593C52.1424 38.0696 52.4933 37.6814 52.8995 37.2349L51.3215 35.7992C50.9361 36.2228 50.4825 36.7188 50.1174 37.2483C49.7502 37.7809 49.4132 38.4288 49.3319 39.1812L51.4529 39.4104ZM54.1125 42.0542C52.7599 42.0542 51.4591 40.7599 51.4591 39.2958H49.3257C49.3257 41.8818 51.5261 44.1876 54.1125 44.1876V42.0542ZM56.7659 39.2958C56.7659 40.7599 55.465 42.0542 54.1125 42.0542V44.1876C56.6988 44.1876 58.8992 41.8818 58.8992 39.2958H56.7659ZM56.1353 37.9256C56.4601 38.1482 56.7659 38.694 56.7659 39.2958H58.8992C58.8992 38.0976 58.3297 36.8433 57.3415 36.166L56.1353 37.9256ZM56.6278 39.8145C57.1315 39.2965 57.4114 38.5974 57.5616 38.1341C57.6424 37.8848 57.6985 37.6621 57.7347 37.5008C57.7529 37.4197 57.7664 37.3528 57.7756 37.3042C57.7802 37.2799 57.7838 37.2601 57.7864 37.2453C57.7877 37.2379 57.7887 37.2318 57.7896 37.227C57.79 37.2245 57.7903 37.2224 57.7906 37.2207C57.7908 37.2198 57.7909 37.219 57.791 37.2183C57.7911 37.2179 57.7911 37.2176 57.7912 37.2173C57.7912 37.2171 57.7912 37.2169 57.7912 37.2168C57.7913 37.2166 57.7913 37.2164 56.7384 37.0458C55.6855 36.8751 55.6855 36.8749 55.6855 36.8747C55.6855 36.8746 55.6856 36.8745 55.6856 36.8743C55.6856 36.8741 55.6857 36.8739 55.6857 36.8737C55.6857 36.8733 55.6858 36.873 55.6858 36.8728C55.6859 36.8723 55.6859 36.8722 55.6859 36.8723C55.6859 36.8727 55.6856 36.8742 55.6851 36.8768C55.6842 36.8822 55.6824 36.892 55.6798 36.9059C55.6745 36.9339 55.6657 36.9777 55.6532 37.0337C55.6278 37.1467 55.5882 37.3036 55.5322 37.4762C55.4089 37.8567 55.2512 38.1701 55.0984 38.3271L56.6278 39.8145ZM54.8229 38.5444C54.8111 38.7104 54.7964 38.9081 54.7964 39.0708H56.9297C56.9297 39.0016 56.9369 38.8926 56.9509 38.6956L54.8229 38.5444Z" fill="url(#paint1_linear_119_11099)" mask="url(#path-1-inside-1_119_11099)"/>
</g>
<path fill-rule="evenodd" clip-rule="evenodd" d="M105.295 80.2418L53.3336 65.9815L1.37207 80.2418L53.3336 94.5022L105.295 80.2418ZM96.3791 80.242L53.0778 68.3584L9.77653 80.242L53.0778 92.1256L96.3791 80.242Z" fill="url(#paint2_linear_119_11099)"/>
<g opacity="0.6" filter="url(#filter1_df_119_11099)">
<path d="M53.9264 75.7317L75.8523 81.7887L53.9264 87.8457L32.0005 81.7887L53.9264 75.7317Z" fill="url(#paint3_linear_119_11099)"/>
</g>
<path fill-rule="evenodd" clip-rule="evenodd" d="M52.898 66.022L52.8947 66.0211L53.1834 65.9418L53.1867 65.9427L53.19 65.9418L53.4787 66.0211L53.4754 66.022L64.9411 69.1686L65.1518 69.1108L65.4405 69.19L65.2298 69.2479L76.4004 72.3135L76.5233 72.2798L76.812 72.359L76.6891 72.3927L105.145 80.2022L105.001 80.2416L105.145 80.2812L53.4754 94.4615L53.4782 94.4623L53.1896 94.5415L53.1867 94.5407L53.1838 94.5415L52.8951 94.4623L52.898 94.4615L1.22803 80.2812L1.37225 80.2416L1.22848 80.2022L29.6843 72.3927L29.5614 72.359L29.85 72.2798L29.973 72.3135L41.143 69.248L40.9317 69.19L41.2204 69.1108L41.4317 69.1688L52.898 66.022ZM53.1867 66.1012L41.7203 69.248L53.1861 72.3947L64.6524 69.2479L53.1867 66.1012ZM64.9411 69.3271L53.4748 72.4739L64.6454 75.5396L76.1117 72.3927L64.9411 69.3271ZM76.4004 72.472L64.9341 75.6188L78.9454 79.4641L90.4117 76.3172L76.4004 72.472ZM90.7004 76.3965L79.2341 79.5433L93.1819 83.3711L92.8933 83.4504L78.9454 79.6225L67.7754 82.688L81.7867 86.5333L104.712 80.2417L90.7004 76.3965ZM81.498 86.6125L67.4867 82.7672L53.4748 86.6127L67.4861 90.458L81.498 86.6125ZM67.1974 90.5372L53.1861 86.6919L39.1753 90.537L53.1867 94.3823L67.1974 90.5372ZM38.8867 90.4578L52.8974 86.6127L38.8861 82.7674L24.8753 86.6125L38.8867 90.4578ZM24.5866 86.5333L38.5974 82.6882L27.4268 79.6225L13.4789 83.4504L13.1903 83.3711L27.1381 79.5433L15.6724 76.3966L1.66161 80.2417L24.5866 86.5333ZM15.961 76.3174L27.4268 79.4641L41.4387 75.6186L29.973 72.472L15.961 76.3174ZM30.2616 72.3927L41.7274 75.5394L52.8974 72.4739L41.4317 69.3272L30.2616 72.3927ZM53.1861 72.5531L42.0161 75.6186L53.1867 78.6843L64.3567 75.6188L53.1861 72.5531ZM64.6454 75.698L53.4754 78.7635L67.4867 82.6088L78.6567 79.5433L64.6454 75.698ZM67.198 82.688L53.1867 78.8427L39.1748 82.6882L53.1861 86.5335L67.198 82.688ZM38.8861 82.609L52.898 78.7635L41.7274 75.6979L27.7155 79.5433L38.8861 82.609Z" fill="url(#paint4_linear_119_11099)"/>
<path fill-rule="evenodd" clip-rule="evenodd" d="M105.145 80.2812L53.1831 94.5415L52.8944 94.4623L104.856 80.202L105.145 80.2812Z" fill="url(#paint5_linear_119_11099)"/>
<path fill-rule="evenodd" clip-rule="evenodd" d="M1.22793 80.2812L53.1895 94.5415L53.4781 94.4623L1.5166 80.202L1.22793 80.2812Z" fill="url(#paint6_linear_119_11099)"/>
<path d="M94.8159 71.2261L53.4224 59.866V62.9642L94.8159 74.3243V71.2261Z" fill="url(#paint7_linear_119_11099)"/>
<path d="M53.4223 59.8658L12.0288 71.2259V74.3241L53.4223 62.964V59.8658Z" fill="url(#paint8_linear_119_11099)"/>
<path d="M53.4224 82.5864L94.8159 71.2263V78.2723L53.4224 89.6324V82.5864Z" fill="url(#paint9_linear_119_11099)"/>
<path d="M12.0288 71.2263L53.4223 82.5864V89.6324L12.0288 78.2723V71.2263Z" fill="url(#paint10_linear_119_11099)"/>
<path d="M14.044 71.2259L53.4223 60.4189L92.8006 71.2259L53.4223 82.0329L14.044 71.2259Z" fill="#2F335A" stroke="url(#paint11_linear_119_11099)" stroke-width="1.06667"/>
<g filter="url(#filter2_di_119_11099)">
<path d="M53.3076 65.9965L73.392 71.2602L53.3076 76.524L33.2231 71.2602L53.3076 65.9965Z" fill="url(#paint12_linear_119_11099)"/>
</g>
<g filter="url(#filter3_d_119_11099)">
<path d="M39.1127 81.109L21.335 76.2854V78.4305L39.1127 83.2542V81.109Z" fill="url(#paint13_linear_119_11099)"/>
</g>
<path opacity="0.3" d="M39.1127 81.109L21.335 76.2854L5.33496 81.3329L5.33496 92.3396L39.1127 83.2542V81.109Z" fill="url(#paint14_linear_119_11099)"/>
<g filter="url(#filter4_d_119_11099)">
<path d="M65.7794 81.109L83.5571 76.2854V78.4305L65.7794 83.2542V81.109Z" fill="url(#paint15_linear_119_11099)"/>
</g>
<path opacity="0.3" d="M65.7794 81.109L83.5571 76.2854L99.5571 81.3329L99.5571 92.3396L65.7794 83.2542V81.109Z" fill="url(#paint16_linear_119_11099)"/>
<g filter="url(#filter5_d_119_11099)">
<ellipse cx="72.5754" cy="13.9584" rx="1.36005" ry="1.15844" fill="url(#paint17_linear_119_11099)"/>
</g>
<g filter="url(#filter6_d_119_11099)">
<ellipse cx="64.0467" cy="56.589" rx="0.680026" ry="0.579221" fill="white"/>
</g>
<g filter="url(#filter7_d_119_11099)">
<ellipse cx="78.2307" cy="46.6759" rx="1.36005" ry="1.15844" fill="url(#paint18_linear_119_11099)"/>
</g>
<g filter="url(#filter8_d_119_11099)">
<ellipse cx="23.4006" cy="36.0846" rx="1.36005" ry="1.15844" fill="url(#paint19_linear_119_11099)"/>
</g>
<g filter="url(#filter9_d_119_11099)">
<ellipse cx="55.3617" cy="64.698" rx="0.680026" ry="0.579221" fill="white"/>
</g>
<g filter="url(#filter10_d_119_11099)">
<ellipse cx="42.1107" cy="55.0171" rx="0.680026" ry="0.579221" fill="white"/>
</g>
<rect y="0.0564597" width="53.6695" height="53.6695" transform="matrix(0.964343 0.264655 -0.964343 0.264655 53.3879 40.5864)" stroke="url(#paint20_linear_119_11099)" stroke-width="0.213333" stroke-dasharray="0.43 0.43"/>
<path d="M88.8894 43.7333L80.714 69.8173L53.3339 77.8667L25.9537 69.8173L17.7783 43.7333H88.8894Z" fill="url(#paint21_linear_119_11099)"/>
<path opacity="0.5" d="M82.8535 15.225L71.0017 70.6742L53.321 75.5704L35.6403 70.6742L23.7886 15.225H82.8535Z" fill="url(#paint22_linear_119_11099)"/>
<defs>
<filter id="filter0_d_119_11099" x="29.2586" y="3.19997" width="49.3656" height="55.4667" filterUnits="userSpaceOnUse" color-interpolation-filters="sRGB">
<feFlood flood-opacity="0" result="BackgroundImageFix"/>
<feColorMatrix in="SourceAlpha" type="matrix" values="0 0 0 0 0 0 0 0 0 0 0 0 0 0 0 0 0 0 127 0" result="hardAlpha"/>
<feOffset/>
<feGaussianBlur stdDeviation="5.33333"/>
<feComposite in2="hardAlpha" operator="out"/>
<feColorMatrix type="matrix" values="0 0 0 0 0.992157 0 0 0 0 0.659608 0 0 0 0 0.160784 0 0 0 0.2 0"/>
<feBlend mode="normal" in2="BackgroundImageFix" result="effect1_dropShadow_119_11099"/>
<feBlend mode="normal" in="SourceGraphic" in2="effect1_dropShadow_119_11099" result="shape"/>
</filter>
<filter id="filter1_df_119_11099" x="27.7338" y="71.465" width="52.3854" height="20.6473" filterUnits="userSpaceOnUse" color-interpolation-filters="sRGB">
<feFlood flood-opacity="0" result="BackgroundImageFix"/>
<feColorMatrix in="SourceAlpha" type="matrix" values="0 0 0 0 0 0 0 0 0 0 0 0 0 0 0 0 0 0 127 0" result="hardAlpha"/>
<feOffset/>
<feGaussianBlur stdDeviation="2.13333"/>
<feComposite in2="hardAlpha" operator="out"/>
<feColorMatrix type="matrix" values="0 0 0 0 0 0 0 0 0 0.28 0 0 0 0 1 0 0 0 1 0"/>
<feBlend mode="normal" in2="BackgroundImageFix" result="effect1_dropShadow_119_11099"/>
<feBlend mode="normal" in="SourceGraphic" in2="effect1_dropShadow_119_11099" result="shape"/>
<feGaussianBlur stdDeviation="2.13333" result="effect2_foregroundBlur_119_11099"/>
</filter>
<filter id="filter2_di_119_11099" x="28.9565" y="61.7298" width="48.7023" height="19.0609" filterUnits="userSpaceOnUse" color-interpolation-filters="sRGB">
<feFlood flood-opacity="0" result="BackgroundImageFix"/>
<feColorMatrix in="SourceAlpha" type="matrix" values="0 0 0 0 0 0 0 0 0 0 0 0 0 0 0 0 0 0 127 0" result="hardAlpha"/>
<feOffset/>
<feGaussianBlur stdDeviation="2.13333"/>
<feComposite in2="hardAlpha" operator="out"/>
<feColorMatrix type="matrix" values="0 0 0 0 0.0375 0 0 0 0 0.538 0 0 0 0 1 0 0 0 1 0"/>
<feBlend mode="normal" in2="BackgroundImageFix" result="effect1_dropShadow_119_11099"/>
<feBlend mode="normal" in="SourceGraphic" in2="effect1_dropShadow_119_11099" result="shape"/>
<feColorMatrix in="SourceAlpha" type="matrix" values="0 0 0 0 0 0 0 0 0 0 0 0 0 0 0 0 0 0 127 0" result="hardAlpha"/>
<feOffset dy="2.13333"/>
<feComposite in2="hardAlpha" operator="arithmetic" k2="-1" k3="1"/>
<feColorMatrix type="matrix" values="0 0 0 0 0.123333 0 0 0 0 0.17619 0 0 0 0 0.308333 0 0 0 1 0"/>
<feBlend mode="normal" in2="shape" result="effect2_innerShadow_119_11099"/>
</filter>
<filter id="filter3_d_119_11099" x="17.0683" y="72.0187" width="26.3112" height="15.5021" filterUnits="userSpaceOnUse" color-interpolation-filters="sRGB">
<feFlood flood-opacity="0" result="BackgroundImageFix"/>
<feColorMatrix in="SourceAlpha" type="matrix" values="0 0 0 0 0 0 0 0 0 0 0 0 0 0 0 0 0 0 127 0" result="hardAlpha"/>
<feOffset/>
<feGaussianBlur stdDeviation="2.13333"/>
<feComposite in2="hardAlpha" operator="out"/>
<feColorMatrix type="matrix" values="0 0 0 0 1 0 0 0 0 0.48 0 0 0 0 0 0 0 0 1 0"/>
<feBlend mode="normal" in2="BackgroundImageFix" result="effect1_dropShadow_119_11099"/>
<feBlend mode="normal" in="SourceGraphic" in2="effect1_dropShadow_119_11099" result="shape"/>
</filter>
<filter id="filter4_d_119_11099" x="61.5126" y="72.0187" width="26.3112" height="15.5021" filterUnits="userSpaceOnUse" color-interpolation-filters="sRGB">
<feFlood flood-opacity="0" result="BackgroundImageFix"/>
<feColorMatrix in="SourceAlpha" type="matrix" values="0 0 0 0 0 0 0 0 0 0 0 0 0 0 0 0 0 0 127 0" result="hardAlpha"/>
<feOffset/>
<feGaussianBlur stdDeviation="2.13333"/>
<feComposite in2="hardAlpha" operator="out"/>
<feColorMatrix type="matrix" values="0 0 0 0 1 0 0 0 0 0.48 0 0 0 0 0 0 0 0 1 0"/>
<feBlend mode="normal" in2="BackgroundImageFix" result="effect1_dropShadow_119_11099"/>
<feBlend mode="normal" in="SourceGraphic" in2="effect1_dropShadow_119_11099" result="shape"/>
</filter>
<filter id="filter5_d_119_11099" x="66.9487" y="8.53332" width="11.2535" height="10.8502" filterUnits="userSpaceOnUse" color-interpolation-filters="sRGB">
<feFlood flood-opacity="0" result="BackgroundImageFix"/>
<feColorMatrix in="SourceAlpha" type="matrix" values="0 0 0 0 0 0 0 0 0 0 0 0 0 0 0 0 0 0 127 0" result="hardAlpha"/>
<feOffset/>
<feGaussianBlur stdDeviation="2.13333"/>
<feComposite in2="hardAlpha" operator="out"/>
<feColorMatrix type="matrix" values="0 0 0 0 1 0 0 0 0 0.48 0 0 0 0 0 0 0 0 1 0"/>
<feBlend mode="normal" in2="BackgroundImageFix" result="effect1_dropShadow_119_11099"/>
<feBlend mode="normal" in="SourceGraphic" in2="effect1_dropShadow_119_11099" result="shape"/>
</filter>
<filter id="filter6_d_119_11099" x="59.1" y="51.7431" width="9.8932" height="9.69178" filterUnits="userSpaceOnUse" color-interpolation-filters="sRGB">
<feFlood flood-opacity="0" result="BackgroundImageFix"/>
<feColorMatrix in="SourceAlpha" type="matrix" values="0 0 0 0 0 0 0 0 0 0 0 0 0 0 0 0 0 0 127 0" result="hardAlpha"/>
<feOffset/>
<feGaussianBlur stdDeviation="2.13333"/>
<feComposite in2="hardAlpha" operator="out"/>
<feColorMatrix type="matrix" values="0 0 0 0 0 0 0 0 0 0.28 0 0 0 0 1 0 0 0 1 0"/>
<feBlend mode="normal" in2="BackgroundImageFix" result="effect1_dropShadow_119_11099"/>
<feBlend mode="normal" in="SourceGraphic" in2="effect1_dropShadow_119_11099" result="shape"/>
</filter>
<filter id="filter7_d_119_11099" x="72.6039" y="41.2508" width="11.2535" height="10.8502" filterUnits="userSpaceOnUse" color-interpolation-filters="sRGB">
<feFlood flood-opacity="0" result="BackgroundImageFix"/>
<feColorMatrix in="SourceAlpha" type="matrix" values="0 0 0 0 0 0 0 0 0 0 0 0 0 0 0 0 0 0 127 0" result="hardAlpha"/>
<feOffset/>
<feGaussianBlur stdDeviation="2.13333"/>
<feComposite in2="hardAlpha" operator="out"/>
<feColorMatrix type="matrix" values="0 0 0 0 1 0 0 0 0 0.48 0 0 0 0 0 0 0 0 1 0"/>
<feBlend mode="normal" in2="BackgroundImageFix" result="effect1_dropShadow_119_11099"/>
<feBlend mode="normal" in="SourceGraphic" in2="effect1_dropShadow_119_11099" result="shape"/>
</filter>
<filter id="filter8_d_119_11099" x="17.7739" y="30.6595" width="11.2535" height="10.8502" filterUnits="userSpaceOnUse" color-interpolation-filters="sRGB">
<feFlood flood-opacity="0" result="BackgroundImageFix"/>
<feColorMatrix in="SourceAlpha" type="matrix" values="0 0 0 0 0 0 0 0 0 0 0 0 0 0 0 0 0 0 127 0" result="hardAlpha"/>
<feOffset/>
<feGaussianBlur stdDeviation="2.13333"/>
<feComposite in2="hardAlpha" operator="out"/>
<feColorMatrix type="matrix" values="0 0 0 0 1 0 0 0 0 0.48 0 0 0 0 0 0 0 0 1 0"/>
<feBlend mode="normal" in2="BackgroundImageFix" result="effect1_dropShadow_119_11099"/>
<feBlend mode="normal" in="SourceGraphic" in2="effect1_dropShadow_119_11099" result="shape"/>
</filter>
<filter id="filter9_d_119_11099" x="50.415" y="59.8521" width="9.8932" height="9.69178" filterUnits="userSpaceOnUse" color-interpolation-filters="sRGB">
<feFlood flood-opacity="0" result="BackgroundImageFix"/>
<feColorMatrix in="SourceAlpha" type="matrix" values="0 0 0 0 0 0 0 0 0 0 0 0 0 0 0 0 0 0 127 0" result="hardAlpha"/>
<feOffset/>
<feGaussianBlur stdDeviation="2.13333"/>
<feComposite in2="hardAlpha" operator="out"/>
<feColorMatrix type="matrix" values="0 0 0 0 0 0 0 0 0 0.28 0 0 0 0 1 0 0 0 1 0"/>
<feBlend mode="normal" in2="BackgroundImageFix" result="effect1_dropShadow_119_11099"/>
<feBlend mode="normal" in="SourceGraphic" in2="effect1_dropShadow_119_11099" result="shape"/>
</filter>
<filter id="filter10_d_119_11099" x="37.164" y="50.1712" width="9.8932" height="9.69178" filterUnits="userSpaceOnUse" color-interpolation-filters="sRGB">
<feFlood flood-opacity="0" result="BackgroundImageFix"/>
<feColorMatrix in="SourceAlpha" type="matrix" values="0 0 0 0 0 0 0 0 0 0 0 0 0 0 0 0 0 0 127 0" result="hardAlpha"/>
<feOffset/>
<feGaussianBlur stdDeviation="2.13333"/>
<feComposite in2="hardAlpha" operator="out"/>
<feColorMatrix type="matrix" values="0 0 0 0 0 0 0 0 0 0.28 0 0 0 0 1 0 0 0 1 0"/>
<feBlend mode="normal" in2="BackgroundImageFix" result="effect1_dropShadow_119_11099"/>
<feBlend mode="normal" in="SourceGraphic" in2="effect1_dropShadow_119_11099" result="shape"/>
</filter>
<linearGradient id="paint0_linear_119_11099" x1="53.7342" y1="14.8535" x2="54.2148" y2="47.9075" gradientUnits="userSpaceOnUse">
<stop stop-color="#FFD8AB"/>
<stop offset="1" stop-color="white"/>
</linearGradient>
<linearGradient id="paint1_linear_119_11099" x1="53.9414" y1="13.8666" x2="53.9414" y2="48" gradientUnits="userSpaceOnUse">
<stop stop-color="white"/>
<stop offset="1" stop-color="#FFC267"/>
</linearGradient>
<linearGradient id="paint2_linear_119_11099" x1="53.3336" y1="65.9815" x2="53.3336" y2="94.5022" gradientUnits="userSpaceOnUse">
<stop stop-color="white" stop-opacity="0.03"/>
<stop offset="1" stop-color="#FFE27A" stop-opacity="0.21"/>
</linearGradient>
<linearGradient id="paint3_linear_119_11099" x1="52.7412" y1="76.7412" x2="53.8638" y2="87.7918" gradientUnits="userSpaceOnUse">
<stop stop-color="#64E3FF"/>
<stop offset="1" stop-color="#0075FF"/>
</linearGradient>
<linearGradient id="paint4_linear_119_11099" x1="53.3348" y1="94.5018" x2="53.419" y2="75.5961" gradientUnits="userSpaceOnUse">
<stop stop-color="white" stop-opacity="0.4"/>
<stop offset="1" stop-color="white" stop-opacity="0"/>
</linearGradient>
<linearGradient id="paint5_linear_119_11099" x1="105" y1="80.2416" x2="97.7213" y2="106.765" gradientUnits="userSpaceOnUse">
<stop stop-color="#648FFF" stop-opacity="0"/>
<stop offset="0.5" stop-color="#FFD464"/>
<stop offset="1" stop-color="#64A2FF" stop-opacity="0"/>
</linearGradient>
<linearGradient id="paint6_linear_119_11099" x1="1.37226" y1="80.2416" x2="8.65125" y2="106.765" gradientUnits="userSpaceOnUse">
<stop stop-color="#648FFF" stop-opacity="0"/>
<stop offset="0.5" stop-color="#FFD464"/>
<stop offset="1" stop-color="#64A2FF" stop-opacity="0"/>
</linearGradient>
<linearGradient id="paint7_linear_119_11099" x1="94.8159" y1="74.3243" x2="94.8159" y2="59.866" gradientUnits="userSpaceOnUse">
<stop stop-color="#B3C0DF"/>
<stop offset="1" stop-color="#7D9EC8"/>
</linearGradient>
<linearGradient id="paint8_linear_119_11099" x1="53.4223" y1="74.3241" x2="53.4223" y2="59.8658" gradientUnits="userSpaceOnUse">
<stop stop-color="#B3C0DF"/>
<stop offset="1" stop-color="#7D9EC8"/>
</linearGradient>
<linearGradient id="paint9_linear_119_11099" x1="56.8502" y1="75.208" x2="90.1674" y2="70.3937" gradientUnits="userSpaceOnUse">
<stop stop-color="#273558"/>
<stop offset="1" stop-color="#3F4E76"/>
</linearGradient>
<linearGradient id="paint10_linear_119_11099" x1="15.4567" y1="75.208" x2="48.7738" y2="70.3937" gradientUnits="userSpaceOnUse">
<stop stop-color="#273558"/>
<stop offset="1" stop-color="#3F4E76"/>
</linearGradient>
<linearGradient id="paint11_linear_119_11099" x1="53.4223" y1="59.8658" x2="53.4223" y2="82.5859" gradientUnits="userSpaceOnUse">
<stop stop-color="#9BB9FF" stop-opacity="0"/>
<stop offset="1" stop-color="#94B4FF"/>
</linearGradient>
<linearGradient id="paint12_linear_119_11099" x1="52.2219" y1="66.8738" x2="53.1484" y2="76.487" gradientUnits="userSpaceOnUse">
<stop stop-color="#64E3FF"/>
<stop offset="1" stop-color="#0075FF"/>
</linearGradient>
<linearGradient id="paint13_linear_119_11099" x1="18.9646" y1="83.5758" x2="40.3338" y2="76.8904" gradientUnits="userSpaceOnUse">
<stop stop-color="#FFB800"/>
<stop offset="0.515625" stop-color="#CEF6FF"/>
<stop offset="1" stop-color="#FF974B"/>
</linearGradient>
<linearGradient id="paint14_linear_119_11099" x1="33.1868" y1="79.7698" x2="5.93242" y2="79.0742" gradientUnits="userSpaceOnUse">
<stop offset="0.164593" stop-color="#FFC163"/>
<stop offset="1" stop-color="#FFC123" stop-opacity="0"/>
</linearGradient>
<linearGradient id="paint15_linear_119_11099" x1="85.9275" y1="83.5758" x2="64.5583" y2="76.8904" gradientUnits="userSpaceOnUse">
<stop stop-color="#FFB800"/>
<stop offset="0.515625" stop-color="#CEF6FF"/>
<stop offset="1" stop-color="#FF974B"/>
</linearGradient>
<linearGradient id="paint16_linear_119_11099" x1="71.7053" y1="79.7698" x2="98.9597" y2="79.0742" gradientUnits="userSpaceOnUse">
<stop offset="0.164593" stop-color="#FFC163"/>
<stop offset="1" stop-color="#FFC123" stop-opacity="0"/>
</linearGradient>
<linearGradient id="paint17_linear_119_11099" x1="71.2153" y1="15.1169" x2="74.1519" y2="14.7158" gradientUnits="userSpaceOnUse">
<stop stop-color="white"/>
<stop offset="0.291667" stop-color="#FFE664"/>
<stop offset="1" stop-color="#FFD28D"/>
</linearGradient>
<linearGradient id="paint18_linear_119_11099" x1="76.8706" y1="47.8343" x2="79.8072" y2="47.4332" gradientUnits="userSpaceOnUse">
<stop stop-color="white"/>
<stop offset="0.291667" stop-color="#FFE664"/>
<stop offset="1" stop-color="#FFD28D"/>
</linearGradient>
<linearGradient id="paint19_linear_119_11099" x1="22.0405" y1="37.243" x2="24.9771" y2="36.8419" gradientUnits="userSpaceOnUse">
<stop stop-color="white"/>
<stop offset="0.291667" stop-color="#FFE664"/>
<stop offset="1" stop-color="#FFD28D"/>
</linearGradient>
<linearGradient id="paint20_linear_119_11099" x1="34.7331" y1="58.0651" x2="0.603752" y2="25.3741" gradientUnits="userSpaceOnUse">
<stop stop-color="white"/>
<stop offset="1" stop-color="white" stop-opacity="0"/>
</linearGradient>
<linearGradient id="paint21_linear_119_11099" x1="53.2583" y1="78.2332" x2="53.2583" y2="53.0576" gradientUnits="userSpaceOnUse">
<stop stop-color="#FFC163"/>
<stop offset="1" stop-color="#FFA723" stop-opacity="0"/>
</linearGradient>
<linearGradient id="paint22_linear_119_11099" x1="53.2776" y1="75.9502" x2="53.2776" y2="42.6666" gradientUnits="userSpaceOnUse">
<stop stop-color="#FFC163"/>
<stop offset="1" stop-color="#2353FF" stop-opacity="0"/>
</linearGradient>
</defs>
</svg>
