<svg fill="none" height="55" viewBox="0 0 65 55" width="65" xmlns="http://www.w3.org/2000/svg" xmlns:xlink="http://www.w3.org/1999/xlink"><linearGradient id="a"><stop offset="0" stop-color="#fff" stop-opacity=".2"/><stop offset=".505208" stop-color="#fff" stop-opacity=".35"/><stop offset="1" stop-color="#fff" stop-opacity=".2"/></linearGradient><linearGradient id="b" gradientUnits="userSpaceOnUse" x1="32.3994" x2="32.3994" xlink:href="#a" y1="3.79999" y2="55.8714"/><linearGradient id="c" gradientUnits="userSpaceOnUse" x1="32.3994" x2="32.3994" xlink:href="#a" y1=".799988" y2="52.8714"/><linearGradient id="d" gradientUnits="userSpaceOnUse" x1="32.3992" x2="32.3992" y1=".799974" y2="52.8714"><stop offset="0" stop-color="#fff"/><stop offset=".489583" stop-color="#e4f1f9"/><stop offset="1" stop-color="#fff" stop-opacity=".37"/></linearGradient><linearGradient id="e"><stop offset="0" stop-color="#fff" stop-opacity="0"/><stop offset=".244792" stop-color="#fff" stop-opacity=".48"/><stop offset=".515625" stop-color="#fff" stop-opacity=".2"/><stop offset=".755208" stop-color="#fff" stop-opacity=".2"/><stop offset="1" stop-color="#fff" stop-opacity="0"/></linearGradient><linearGradient id="f" gradientUnits="userSpaceOnUse" x1="6.5" x2="6.5" xlink:href="#e" y1="-4" y2="53"/><linearGradient id="g" gradientUnits="userSpaceOnUse" x1="14.5" x2="14.5" xlink:href="#e" y1="-4" y2="53"/><linearGradient id="h" gradientUnits="userSpaceOnUse" x1="22.5" x2="22.5" xlink:href="#e" y1="-4" y2="53"/><linearGradient id="i" gradientUnits="userSpaceOnUse" x1="30.5" x2="30.5" xlink:href="#e" y1="-4" y2="53"/><linearGradient id="j" gradientUnits="userSpaceOnUse" x1="38.5" x2="38.5" xlink:href="#e" y1="-4" y2="53"/><linearGradient id="k" gradientUnits="userSpaceOnUse" x1="46.5" x2="46.5" xlink:href="#e" y1="-4" y2="53"/><linearGradient id="l" gradientUnits="userSpaceOnUse" x1="54.5" x2="54.5" xlink:href="#e" y1="-4" y2="53"/><clipPath id="m"><path d="m0 0h65v55h-65z"/></clipPath><mask id="n" height="53" maskUnits="userSpaceOnUse" width="65" x="0" y="0"><path d="m.399414 4.39999c0-1.98822 1.611776-3.600002 3.599996-3.600002h56.79999c1.9882 0 3.6 1.611772 3.6 3.600002v29.94541c0 1.3532-.7589 2.5922-1.9643 3.207l-28.4 14.4848c-1.0275.524-2.2439.524-3.2713 0l-28.40003-14.4848c-1.20549-.6148-1.964356-1.8538-1.964356-3.207z" fill="#fff"/></mask><g clip-path="url(#m)"><path d="m.399414 34.3454v3c0 1.3532.758866 2.5922 1.964356 3.207l28.40003 14.4848c1.0274.524 2.2438.524 3.2713 0l28.4-14.4848c1.2054-.6148 1.9643-1.8538 1.9643-3.207v-3c0 1.3532-.7589 2.5922-1.9643 3.207l-28.4 14.4848c-1.0275.524-2.2439.524-3.2713 0l-28.40003-14.4848c-1.20549-.6148-1.964356-1.8538-1.964356-3.207z" fill="url(#b)"/><path d="m.399414 4.39999c0-1.98822 1.611776-3.600002 3.599996-3.600002h56.79999c1.9882 0 3.6 1.611772 3.6 3.600002v29.94541c0 1.3532-.7589 2.5922-1.9643 3.207l-28.4 14.4848c-1.0275.524-2.2439.524-3.2713 0l-28.40003-14.4848c-1.20549-.6148-1.964356-1.8538-1.964356-3.207z" fill="url(#c)"/><path clip-rule="evenodd" d="m33.8304 51.6363.4089.8017c-1.1559.5895-2.5242.5895-3.6802.0001v-.0001l-28.39998-14.4848.40749-.7989-.4075.7989c-1.356143-.6917-2.2098912-2.0854-2.2098912-3.6078v-29.94542c0-2.23676 1.8132512-4.050004 4.0499912-4.050004h56.79999c2.2368 0 4.05 1.813244 4.05 4.050004v29.94542c0 1.5224-.8537 2.9161-2.2099 3.6078l-.4089-.8017c1.0548-.538 1.7188-1.622 1.7188-2.8061v-29.94542c0-1.7397-1.4103-3.15-3.15-3.15h-56.79999c-1.73969 0-3.149991 1.4103-3.149991 3.15v29.94542c0 1.1841.664011 2.2681 1.718811 2.8061l28.39997 14.4848c.8991.4585 1.9634.4585 2.8624 0zm0 0 .4089.8017 28.4-14.4848-.4089-.8017z" fill="url(#d)" fill-rule="evenodd"/><g mask="url(#n)"><g fill="#d9d9d9"><path d="m-5.90039 48.5v.9h69.29999v-.9z" opacity=".1"/><path d="m-5.90039 40.4v.9h69.29999v-.9z" opacity=".1"/><path d="m-5.90039 32.3v.9h69.29999v-.9z" opacity=".1"/><path d="m-5.90039 24.2v.9h69.29999v-.9z" opacity=".2"/><path d="m-5.90039 16.1v.9h69.29999v-.9z" opacity=".2"/><path d="m-5.90039 7.99996v.9h69.29999v-.9z" opacity=".1"/></g><path d="m7-4h-1v57h1z" fill="url(#f)"/><path d="m15-4h-1v57h1z" fill="url(#g)"/><path d="m23-4h-1v57h1z" fill="url(#h)"/><path d="m31-4h-1v57h1z" fill="url(#i)"/><path d="m39-4h-1v57h1z" fill="url(#j)"/><path d="m47-4h-1v57h1z" fill="url(#k)"/><path d="m55-4h-1v57h1z" fill="url(#l)"/></g><path d="m17.8286 29.419h1.0243v-5.6338h10.709c.5588 0 .9701.1319 1.2339.3958.2794.2483.4191.5509.4191.9079v4.3301h1.0243v1.4667h-14.4106zm8.1016 0v-4.1671h-1.8159v4.1671zm3.5386-3.6783c0-.1707-.0465-.2948-.1397-.3724-.0776-.0776-.1784-.1164-.3026-.1164h-1.3736v4.1671h1.8159zm-8.8931 3.6783h1.8159v-4.1671h-1.8159zm.3725-6.3089c.388-.2329.8148-.5433 1.2804-.9313s.9079-.8148 1.327-1.2804c-.6674-.9622-1.1873-2.0952-1.5598-3.3989h1.7926c.2173.7139.4966 1.3502.8381 1.909.4811-.8226.7993-1.6685.9545-2.5376h-3.8413v-1.4434h5.5873v1.4434c-.2638 1.5831-.7915 2.9333-1.583 4.0508.7604.8846 1.5753 1.6141 2.4444 2.1884h-2.2815c-.4035-.1708-.8303-.4812-1.2804-.9313-.4811.4346-.939.745-1.3736.9313zm-3.1196.0465c.4811-.9157.9157-2.1263 1.3037-3.6317.4035-1.5055.6829-3.1817.8381-5.0286h-1.5365v-1.4667h12.5249v1.4667c-.388.9933-.8304 1.8547-1.327 2.5841h1.0942c.3569 0 .6518.1242.8846.3725.2483.2328.3725.5277.3725.8847v2.9799c0 .6053-.194 1.0553-.582 1.3502-.3725.2949-.8381.4579-1.3968.4889h-1.4667l-.3026-1.4667h1.4201c.1552 0 .2871-.0465.3957-.1396.1242-.1087.1863-.2716.1863-.4889v-2.0254c0-.1397-.0466-.2561-.1397-.3492s-.2095-.1397-.3492-.1397h-1.9556v-1.4667c.6364-.9157 1.1175-1.777 1.4434-2.5841h-7.5428c-.1242 2.0021-.388 3.7481-.7916 5.2381-.4035 1.4899-.8458 2.6307-1.327 3.4222zm25.2733-10.2434c.4501 0 .7683.1087.9545.326.1863.2172.326.45.4191.6984.3414 1.1019.8536 2.2349 1.5365 3.3989.6829 1.1485 1.4046 2.1806 2.1651 3.0963h-1.8392c-.419-.4501-.8691-1.0476-1.3502-1.7926v.7683h-3.2826v2.4444h6.3556v1.4667h-6.3556v6.1227c0 .5898-.194 1.0321-.582 1.327-.3725.2949-.8381.4579-1.3968.4889h-1.5132l-.3027-1.4434h1.3968c.1863 0 .3415-.0465.4656-.1397.1397-.0931.2096-.2328.2096-.419v-5.9365h-6.309v-1.4667h6.309v-2.4444h-3.399v-.8381c-.3414.5897-.7527 1.2106-1.2338 1.8624h-1.8159c1.0088-1.552 1.8469-2.9799 2.5143-4.2836.6673-1.3192 1.133-2.3979 1.3968-3.236h1.1407.4889zm1.4667 5.0519c-.6208-1.1175-1.1097-2.1418-1.4667-3.073-.062-.1552-.1474-.2794-.256-.3725-.0932-.0931-.2872-.1397-.5821-.1397h-3.6783c-.4035 1.133-.9467 2.328-1.6296 3.5852zm-6.6582 6.3323c-.2328.9933-.5587 2.0719-.9778 3.2359-.4035 1.1485-.8225 2.2117-1.2571 3.1895h-1.7926c1.133-2.654 1.909-4.7958 2.328-6.4254zm7.6127 0c.4191 1.6296 1.1951 3.7714 2.328 6.4254h-1.7925c-.4346-.9778-.8614-2.041-1.2805-3.1895-.4035-1.164-.7217-2.2426-.9545-3.2359z" fill="#fff"/></g></svg>